<svg xmlns="http://www.w3.org/2000/svg" viewBox="0 0 371.98 56.86"><defs><style>.a{fill:#e20714;}</style></defs><title>Airtel Payments Bank logo - Brandlogos.net</title><path class="a" d="M357.69,505.11A16.6,16.6,0,0,0,347.28,502c-6.09,0-12.65,2.33-19.65,6.94l-.18.14h0l-.71.45-.55.37a44.43,44.43,0,0,0-4.06,3.15c-3,2.88-6.33,7.65-6.09,11.73a5.54,5.54,0,0,0,2,4.18,7.1,7.1,0,0,0,4.47,1.4,21.35,21.35,0,0,0,10.15-3.61l.51-.32,1.4-.93.47-.32a54.12,54.12,0,0,1,12.18-6.76,9.22,9.22,0,0,1,3.09-.61,5.58,5.58,0,0,1,1.32.16,4.06,4.06,0,0,1,3,2.29,10.45,10.45,0,0,1-.63,8.46,36.74,36.74,0,0,1-9.78,12.18,39.08,39.08,0,0,1-6.41,4.59h-.18a21.19,21.19,0,0,1-3,1.46h-.14a7.39,7.39,0,0,1-.85.3c-4.47,1.22-1.75-2.74-1.75-2.74a34.12,34.12,0,0,1,3.27-3c.61-.55,1.24-1.14,1.87-1.79l.14-.14a4.59,4.59,0,0,0,1.79-3.39,4.06,4.06,0,0,0-4.06-3.37h-.2a8.26,8.26,0,0,0-4.79,2,15.87,15.87,0,0,0-3.23,3.63c-1.26,1.89-3.69,6.72-1.26,10.56a5.3,5.3,0,0,0,4.83,2.33,16.83,16.83,0,0,0,5.54-1.2,40.88,40.88,0,0,0,7.9-4.06l.65-.41a59.11,59.11,0,0,0,7.61-5.68,34.26,34.26,0,0,0,10.94-15.63,19.71,19.71,0,0,0,.53-11.41A14.68,14.68,0,0,0,357.69,505.11Z" transform="translate(-316.02 -495.35)"/><path class="a" d="M536.32,545.06c-4.18-.32-5-2.15-5-5.22V500.26L521.14,502v37.23c0,8.81,4.79,12.61,12.81,12.61a24.74,24.74,0,0,0,3.86-.41v-6.31A13.72,13.72,0,0,1,536.32,545.06Z" transform="translate(-316.02 -495.35)"/><path class="a" d="M499.42,518.43c4.47,0,5.12,4.85,5.12,7.86H493.67C493.9,522.4,495.44,518.43,499.42,518.43ZM501.59,545a7.55,7.55,0,0,1-5.83-2.21c-1.81-2-2.62-6-2.4-10.25H515v-1c-.18-14.21-5-20.64-15.61-20.64-11.81,0-16.42,10.88-16.5,21.09a21.56,21.56,0,0,0,6.92,16.67,16.75,16.75,0,0,0,10.72,3.49,24.36,24.36,0,0,0,7.15-1.06,28.84,28.84,0,0,0,7.55-3.65l-2.84-5.85A19.41,19.41,0,0,1,501.59,545Z" transform="translate(-316.02 -495.35)"/><polygon class="a" points="101.57 56.01 111.62 56.01 111.62 16 101.57 17.64 101.57 56.01"/><path class="a" d="M472.75,500.3,462.45,502v37.41c0,8.38,4.89,12.34,13.09,12.34a22.72,22.72,0,0,0,3.84-.37v-6.23h-1.46c-4.32-.14-5.18-2.54-5.18-5.28V518.75h6.64v-7.39h-6.64Z" transform="translate(-316.02 -495.35)"/><path class="a" d="M399.85,543.8a9.78,9.78,0,0,1-5.22,1.32c-4.06,0-5.87-3.11-5.79-6.74a6.31,6.31,0,0,1,7-6.35h4.06Zm-4.06-33.17a30,30,0,0,0-13.54,3.55l-1.12.59,2.68,6.09,1.52-.73a21.82,21.82,0,0,1,9.5-2.21c3.63.14,5.14,1.83,5.14,5.3v2H393.9c-9.58,0-15.53,5.07-15.69,13a14.21,14.21,0,0,0,14.41,14l.53,0a23.47,23.47,0,0,0,16.91-6.27V524.45c0-10.41-7.51-13.82-14.35-13.82Z" transform="translate(-316.02 -495.35)"/><path class="a" d="M422.73,495.35a6.43,6.43,0,0,0-6.48,6.39h0a6.39,6.39,0,1,0,12.77,0,6.09,6.09,0,0,0-1.75-4.36A6.25,6.25,0,0,0,422.73,495.35Z" transform="translate(-316.02 -495.35)"/><path class="a" d="M435.68,518.51v32.88h10.15v-31a11.65,11.65,0,0,1,6.88-2.56,12.89,12.89,0,0,1,4.06.43l2.82-6.35a17.25,17.25,0,0,0-6.76-1.22A23.38,23.38,0,0,0,435.68,518.51Z" transform="translate(-316.02 -495.35)"/><path class="a" d="M669.38,501.44l-4.06.45v16.65a4.2,4.2,0,0,0,4.81,4.55h.49a10.15,10.15,0,0,0,2.37-.24h.12v-3.25H673a10.86,10.86,0,0,1-2,0c-1.5-.1-1.71-1-1.71-1.83v-7.29H673v-3.63h-3.82Z" transform="translate(-316.02 -495.35)"/><path class="a" d="M556.6,504.07h3.78c1.42,0,3.82.43,3.82,3.35,0,2.25-1.46,3.45-4.22,3.45H556.6Zm0,10.74h3.59c5.26,0,8.26-2.66,8.26-7.33s-2.84-7.35-7.79-7.35h-8.12v22.78h4.06Z" transform="translate(-316.02 -495.35)"/><polygon class="a" points="271.39 33.25 275.63 33.25 284.32 11.69 284.4 11.47 280.16 11.47 276.22 21.38 272.04 11.55 272 11.47 267.7 11.47 274.19 26.25 271.39 33.25"/><path class="a" d="M620.69,506.63a7,7,0,0,0-5.22,2.23,5.4,5.4,0,0,0-4.75-2.23,6.58,6.58,0,0,0-4.06,1.5v-1.32H602.6v16.1h4.06v-8c0-2.7,1.38-4.51,3.45-4.51,1.32,0,2.68.47,2.68,3.84v8.67h4v-8c0-2.64,1.36-4.51,3.31-4.51,1.26,0,2.62.3,2.62,3.86v8.65h4.06v-9.3C626.57,509,624.58,506.63,620.69,506.63Z" transform="translate(-316.02 -495.35)"/><path class="a" d="M656.39,506.63a7.33,7.33,0,0,0-4.55,1.54v-1.36h-4.06v16.1h4.06v-8.12c0-2.76,1.46-4.47,3.8-4.47,1.38,0,2.78.45,2.78,3.78v8.75h4.06v-9.24C662.38,509.15,660.21,506.63,656.39,506.63Z" transform="translate(-316.02 -495.35)"/><path class="a" d="M683.19,513.15l-.69-.26c-1.48-.57-2.27-1-2.27-1.56s.75-.93,1.44-.93a5,5,0,0,1,3.37,1.34l.67.57,2-3.23-.55-.45a8.26,8.26,0,0,0-5.5-2,5.1,5.1,0,0,0-5.57,4.57v.12c0,3.23,2.52,4.38,4.89,5.22l.35.12.47.16a5.24,5.24,0,0,1,1.81.81.81.81,0,0,1,.26,1,1,1,0,0,1-.39.47,2,2,0,0,1-1.08.3A5.6,5.6,0,0,1,680,519a7.08,7.08,0,0,1-2-1.18l-.67-.63-2.15,3.17.53.45a9,9,0,0,0,6.21,2.29c4.45,0,6.09-2.66,6.09-5C688.08,515,685.93,514.18,683.19,513.15Z" transform="translate(-316.02 -495.35)"/><path class="a" d="M573.35,517.94a1.5,1.5,0,0,1,.45-1.22,2.94,2.94,0,0,1,2-.67h2.78v3.51a9.52,9.52,0,0,1-2,.26h-.24a4.22,4.22,0,0,1-2.25-.67A1.66,1.66,0,0,1,573.35,517.94ZM571,521.57v.1l.16.12h.24l.2.12a5.83,5.83,0,0,0,1.22.53h0a12.18,12.18,0,0,0,2.68.49h.91a20.46,20.46,0,0,0,5.22-.87H582V511.58a.83.83,0,0,0,0-.22v-1a.39.39,0,0,0,0-.16V510h0l0-.45v0a4.69,4.69,0,0,0-1.1-1.44A5.81,5.81,0,0,0,579,507a9.05,9.05,0,0,0-1.58-.37h-1.12a10.41,10.41,0,0,0-5.26,1.46l-.2.14,1.64,2.56h.2a7.59,7.59,0,0,1,3.19-.83c1.68,0,2.6.87,2.72,1.48v.12h0v1.24h-3.19c-3.69,0-5.89,2-5.89,5.3a4.49,4.49,0,0,0,1.28,3.21A2,2,0,0,0,571,521.57Z" transform="translate(-316.02 -495.35)"/><path class="a" d="M633.68,513a3.43,3.43,0,0,1,3.09-2.74,3.53,3.53,0,0,1,4.06,2.74Zm3.61-6.35a9,9,0,0,0-2.37.37,7.47,7.47,0,0,0-5,4.93,8.89,8.89,0,0,0,1.12,8,7.57,7.57,0,0,0,6.48,3.17,13.8,13.8,0,0,0,2-.16,7.45,7.45,0,0,0,4.59-2.6h.1l-2.54-2.35-.1.1a5.3,5.3,0,0,1-3.74,1.6,4.06,4.06,0,0,1-4.28-3.23v-.2h11.16v-.14a9.84,9.84,0,0,0-.3-4.49A7.57,7.57,0,0,0,637.29,506.63Z" transform="translate(-316.02 -495.35)"/><path class="a" d="M560.13,537.73H556.6v-5.18h3c3.92,0,3.92,1.89,3.92,2.52C563.54,537.55,560.88,537.73,560.13,537.73Zm-3.53,3.88h3.74c1.58,0,4.2.41,4.2,3s-2.7,2.82-4.3,2.82H556.6Zm8.91-2.31a5.68,5.68,0,0,0,2.27-4.73c0-3.84-2.72-5.95-7.63-5.95h-7.71v22.78h8.44c4.91,0,7.88-2.44,7.88-6.52A6,6,0,0,0,565.51,539.29Z" transform="translate(-316.02 -495.35)"/><path class="a" d="M596,535.11a7.35,7.35,0,0,0-4.57,1.54v-1.36h-4.06v16.1h4.06v-8.12c0-2.76,1.46-4.47,3.8-4.47,1.38,0,2.78.45,2.78,3.78v8.75h4.06V542C602,537.63,599.84,535.11,596,535.11Z" transform="translate(-316.02 -495.35)"/><path class="a" d="M580.33,544.45V548a9.52,9.52,0,0,1-2,.26h-.24a4.06,4.06,0,0,1-2.25-.67,1.58,1.58,0,0,1-.65-1.2,1.46,1.46,0,0,1,.47-1.22,2.84,2.84,0,0,1,2-.67Zm3.8-4.75a.39.39,0,0,0,0-.16V539l-.16-.61h0v-.26h0V538a5,5,0,0,0-1.1-1.46,5.44,5.44,0,0,0-1.89-1.1,6.39,6.39,0,0,0-1.6-.37h-1a10.15,10.15,0,0,0-5.26,1.46l-.2.14,1.52,2.37v.2l.22-.1a7.47,7.47,0,0,1,3.19-.81c1.68,0,2.6.85,2.72,1.48h0a.18.18,0,0,0,0,.1v.32h0v1h-3.43c-3.69,0-5.89,2-5.89,5.3a4.45,4.45,0,0,0,1.26,3.19,1.89,1.89,0,0,0,.3.3l.26.2.2.14h0l.22.12a5.4,5.4,0,0,0,1.22.53h.16a11.49,11.49,0,0,0,2.68.47h.91a20.62,20.62,0,0,0,5.22-.87h.26V539.7Z" transform="translate(-316.02 -495.35)"/><path class="a" d="M625.33,532.29a1.18,1.18,0,0,0-.53-.14H612.63a1.08,1.08,0,0,0-1.08,1.08,1.06,1.06,0,0,0,1.06,1.06h0l3.07-.16a4.83,4.83,0,0,1,.43,1.62h-3.39a1,1,0,0,0-1,1v0a1.38,1.38,0,0,0,0,.28,1,1,0,0,0,.91.67l3.21-.18h0c-.59,2.21-4.22,2-4.22,2h-2.42V528.6h-4v22.8h4v-8h1.42l3.33,4.71,2.21,3.27h5l-4.89-7.06-1-1.38h0l.26-.1a6.84,6.84,0,0,0,2.5-1.44,6.43,6.43,0,0,0,2-4.06v-.2l3.31-.22a.67.67,0,0,0,.59-.32.71.71,0,0,0,0-.49.67.67,0,0,0-.69-.43h-3.19a6.54,6.54,0,0,0,0-.87,5.64,5.64,0,0,0-.16-1l3-.18,1.85-.1a1,1,0,0,0,.61-.3.73.73,0,0,0,.12-.41A.75.75,0,0,0,625.33,532.29Z" transform="translate(-316.02 -495.35)"/></svg>