<svg id="Layer_1" data-name="Layer 1" xmlns="http://www.w3.org/2000/svg" width="333.74" height="88.3" viewBox="0 0 333.74 88.3"><title>Bajaj Finserv logo - Brandlogos.net</title><path d="M323.28,378.21V344.4h29.9c6.16,0,16.08.83,16.08,8.87,0,4-3.47,6.74-7.5,7.75,5,1.51,7.5,4.28,7.5,8.08,0,8.29-9.42,9.08-16.08,9.1h-29.9Zm11-14.25,3.14-5.18A4.35,4.35,0,0,1,341,356.9h12.22c2.18,0,4-1,4-2.69s-1.76-2.71-4-2.71H334.26V364Zm0,0V378.2L337.4,373a4.36,4.36,0,0,1,3.56-1.88H353a3.6,3.6,0,1,0,0-7.13Zm61.55-11.4L381,378.24H368.08l20.67-33.84h14.13l20.65,33.81h-12.9l-3.47-6H388L391.2,367a4.4,4.4,0,0,1,3.56-1.88H403Zm89.77,0-14.81,25.68H457.83l20.66-33.84h14.13l20.64,33.81H500.39l-3.47-6H477.79l3.14-5.18a4.36,4.36,0,0,1,3.55-1.88h8.3l-7.23-12.55h0Zm-42.06,18.56c2.51,0,4.51-1.21,4.51-3.67V344.4H459v24.07c0,7.3-4.83,9.74-11.15,9.74H429.54a4.39,4.39,0,0,1-3.55-1.88l-3.18-5.21Zm89.73,0c2.51,0,4.53-1.21,4.53-3.67V344.4h11v24.07c0,7.3-4.82,9.74-11.14,9.74H519.32a4.35,4.35,0,0,1-3.55-1.88l-3.18-5.21Z" transform="translate(-217.13 -339.85)" style="fill:#0071bb"/><path d="M323.22,389.47h27.07v8.22H332.6v8.06h16v7.78h-16v9.78h-9.38V389.47Z" transform="translate(-217.13 -339.85)" style="fill:#0071bb"/><path d="M356.67,389.47h9.42V423.3h-9.42Z" transform="translate(-217.13 -339.85)" style="fill:#0071bb"/><path d="M374.21,389.47H383l13.93,17.88V389.47h9.28V423.3H398l-14.44-18.56V423.3h-9.3V389.47Z" transform="translate(-217.13 -339.85)" style="fill:#0071bb"/><path d="M411.54,418.28l5.22-6.23a17.43,17.43,0,0,0,11,4.06c2.51,0,3.87-.87,3.87-2.32v-.1c0-1.4-1.11-2.18-5.7-3.24-7.21-1.65-12.76-3.67-12.76-10.63v-.1c0-6.28,5-10.83,13.1-10.83,5.75,0,10.25,1.55,13.92,4.5L435.46,400a16.94,16.94,0,0,0-9.47-3.34c-2.27,0-3.38,1-3.38,2.18v.1c0,1.55,1.16,2.22,5.85,3.29,7.78,1.69,12.61,4.2,12.61,10.54v.1c0,6.9-5.46,11-13.67,11A23.65,23.65,0,0,1,411.54,418.28Z" transform="translate(-217.13 -339.85)" style="fill:#0071bb"/><path d="M447.54,389.47h27.21v8H456.83v5.12h16.24V410H456.83v5.38H475v8H447.54Z" transform="translate(-217.13 -339.85)" style="fill:#0071bb"/><path d="M481.72,389.47h16c5.17,0,8.75,1.35,11,3.67a10.49,10.49,0,0,1,3,7.88v.1a10.69,10.69,0,0,1-7,10.39l8.07,11.8H502l-6.82-10.25h-4.1V423.3h-9.38V389.47Zm15.53,16.25c3.2,0,5-1.55,5-4v-.1c0-2.66-1.93-4-5.07-4h-6.14v8.13Z" transform="translate(-217.13 -339.85)" style="fill:#0071bb"/><path d="M514.73,389.47h10.49l7.68,21.41,7.67-21.41h10.3l-13.73,34.08h-8.68Z" transform="translate(-217.13 -339.85)" style="fill:#0071bb"/><path d="M288.84,395.31c0,12-13.45,13.18-23,13.24h-8.55V397.72h17v-8.27h-17V378.21h18.83v-8.74H247.35v39.1h-11V359.43H265.9c8.79,0,23,1.25,23,12.88,0,5.75-4.93,10-10.67,11.43C285.3,385.94,288.84,389.47,288.84,395.31Zm-27.56-55.46A44.15,44.15,0,1,0,305.43,384h0a44.15,44.15,0,0,0-44.14-44.15Z" transform="translate(-217.13 -339.85)" style="fill:#0071bb"/></svg>