<svg xmlns="http://www.w3.org/2000/svg" xmlns:xlink="http://www.w3.org/1999/xlink" width="305.5" height="74.75" viewBox="0 0 305.5 74.75"><defs><symbol id="a" viewBox="0 0 532.1 130.2"><path d="M85.5,129.7l-62.5.1.4-2.2,45.5-1.3c8.7-.3,17.2-.8,25.4-3.6,16.8-5.6,30.2-17.1,34.2-31.2,4.2-15.2-5.5-30-23.8-31.3,15.5-4.5,28.7-14.4,32.3-27,4.6-16.4-3.7-24.8-17.7-27.8,23.2-.4,41.4,7.5,35.2,29.7C151,47.8,137.4,57.4,122,61.6a25.85,25.85,0,0,1,23.2,33.6c-5,15.6-17.6,25.4-34.4,31-8.1,2.7-16.5,3.2-25.3,3.5" style="fill:#f26522"/><path d="M52.7,121.9l-29.3,1.5a5.28,5.28,0,0,0-.1-1.3l74.3-22,.2-2.7L21.9,117c-.2-.7-.3-.5-.6-1.2l79.4-44-.8-2.2L18.8,111.5a8.74,8.74,0,0,0-.8-1l94.4-88.1L111.2,20,14.6,107.4c-.5-.3-.8-.6-1.2-.8L82.6,7H79.7L8.9,104.5c-.4-.1-.8-.3-1.2-.4L48.8,6.8H46.2L1.8,103.4H0L28.6,0,82.1.2c25.3-1.4,45.3,5.4,38.7,29C117.3,41.9,104,51.7,88.6,55.9l-.1.3c18.3,1.3,28.6,16,24.4,31.2-3.9,14.2-18,25.3-34.9,30.9-8.1,2.8-16.5,3.2-25.3,3.6" style="fill:#f26522"/><path d="M194.1,129.5c4,0,14-.5,16.4-11.9,1.3-6.1.5-10.4-6-11.4v-.1c5.3-1,8.6-4.7,9.7-9.9,2-9.6-3.4-11.6-10.6-11.6H187.1l-9.5,44.9Zm.9-37.9h5.8c3.2,0,4.9,2.4,4.2,5.7-.9,4.4-4.1,5.7-6.1,5.7h-6.3Zm-3.9,18.3h5.5c4.7,0,5.7,2.4,4.9,6.4-1.3,6.3-5.8,6.3-7.8,6.3h-5.2Z" style="fill:#f26522"/><path d="M240.7,108c1.2-5.7.8-10.5-10.3-10.5a15.47,15.47,0,0,0-8.6,2.1c-2.4,1.4-4.1,3.8-4.9,7.6h8.6c.5-2.5,1.3-4.8,4.3-4.8,3.2,0,3.1,1.9,2.6,4.6l-.5,2.4c-8.1-.1-16.2.3-18.4,10.7-1.2,5.5.1,10,6.2,10,3.8,0,6.7-1.6,9.2-4.8h.1l-.5,4.2h8.1a57.71,57.71,0,0,1,.8-5.8Zm-9.9,6.4c-.7,3.4-1.4,10.4-6.6,10.4-2.9,0-2.6-2.7-2.2-5,1.2-5.6,4.4-5.2,8.8-5.4" style="fill:#f26522"/><path d="M256.2,98.2h-8.8l-6.7,31.4h8.8l4.6-21.6c.6-2.8,1.6-5,4.3-5s2.8,2.2,2.2,5l-4.5,21.5h8.8l5.3-25.1c.9-4.4-2.2-6.9-6.4-6.9a9.75,9.75,0,0,0-8.2,3.8h-.1Z" style="fill:#f26522"/><polygon points="277.8 129.5 281.4 112.5 281.5 112.5 286 129.5 295.9 129.5 289.7 112.1 301.6 98.2 292.5 98.2 281.8 111.4 281.6 111.4 287.3 84.7 278.6 84.7 269 129.5 277.8 129.5" style="fill:#f26522"/><path d="M318,130.2c11.3,0,14.3-6.9,16.4-16.7,1.8-8.6,2.1-15.9-9.4-15.9s-14.4,7.3-16.2,15.9c-2.1,9.8-2.1,16.7,9.2,16.7m1.2-5.6c-3.2,0-3.6-2-1.6-11.6,1.4-6.5,2.4-9.8,6.1-9.8s3.3,3.3,2,9.8c-2,9.5-3.3,11.6-6.5,11.6" style="fill:#f26522"/><path d="M357.6,84.5c-1-.1-2-.1-3.1-.1-10.7,0-11,4.8-12.8,13.8h-4l-1.1,5.4h3.9l-5.5,26h8.8l5.5-26h4.1l1.1-5.4h-4.1l.8-3.8c.7-3.2,1.7-4.5,5.2-4.3Z" style="fill:#f26522"/><path d="M377.5,129.5c4,0,14-.5,16.4-11.9,1.3-6.1.5-10.4-6-11.4v-.1c5.3-1,8.6-4.7,9.7-9.9,2-9.6-3.4-11.6-10.6-11.6H370.3l-9.5,44.9Zm.8-37.9h5.8c3.2,0,4.9,2.4,4.2,5.7-.9,4.4-4.1,5.7-6.1,5.7h-6.3Zm-3.8,18.3H380c4.7,0,5.7,2.4,4.9,6.4-1.3,6.3-5.8,6.3-7.8,6.3h-5.2Z" style="fill:#f26522"/><path d="M424,108c1.2-5.7.8-10.5-10.3-10.5a15.47,15.47,0,0,0-8.6,2.1c-2.4,1.4-4,3.8-4.9,7.6h8.6c.5-2.5,1.3-4.8,4.3-4.8,3.2,0,3.1,1.9,2.6,4.6l-.5,2.4c-8.1-.1-16.2.3-18.4,10.7-1.2,5.5.1,10,6.2,10,3.8,0,6.7-1.6,9.2-4.8h.1l-.5,4.2h8.1a57.71,57.71,0,0,1,.8-5.8Zm-9.9,6.4c-.7,3.4-1.4,10.4-6.6,10.4-2.9,0-2.6-2.7-2.2-5,1.3-5.6,4.4-5.2,8.8-5.4" style="fill:#f26522"/><path d="M430.8,98.2l-6.7,31.3h8.8l3.6-17.1c.7-3.1,1.7-7.6,9.3-7.1l1.7-7.8a10.12,10.12,0,0,0-9.1,4.7h-.1l.9-4Z" style="fill:#f26522"/><path d="M454.1,130.2c11.3,0,14.3-6.9,16.4-16.7,1.8-8.6,2.1-15.9-9.4-15.9s-14.4,7.3-16.2,15.9c-2.2,9.8-2.1,16.7,9.2,16.7m1.2-5.6c-3.2,0-3.6-2-1.6-11.6,1.4-6.5,2.4-9.8,6.1-9.8s3.3,3.3,2,9.8c-2.1,9.5-3.3,11.6-6.5,11.6" style="fill:#f26522"/><path d="M494.6,129.5l9.5-44.8h-8.8l-3.5,16.5h-.1c-1.2-2.7-3.2-3.6-6.4-3.6-8.8,0-10.6,9.8-12,16.1-1.4,6.5-3.8,16.5,5.2,16.5a9.58,9.58,0,0,0,8.3-4.1h.1l-.7,3.5h8.4Zm-11.3-4.7c-3.2,0-3-3.3-1.4-11.2,1.3-6.3,2.2-10.6,6-10.6,3.6,0,2.6,4.3,1.3,10.6-1.7,7.9-2.9,11.2-5.9,11.2" style="fill:#f26522"/><path d="M527.4,108c1.2-5.7.8-10.5-10.3-10.5a15.47,15.47,0,0,0-8.6,2.1c-2.4,1.4-4,3.8-4.9,7.6h8.6c.5-2.5,1.3-4.8,4.3-4.8,3.2,0,3.1,1.9,2.6,4.6l-.5,2.4c-8.1-.1-16.2.3-18.4,10.7-1.2,5.5.1,10,6.2,10,3.8,0,6.7-1.6,9.2-4.8h.1l-.5,4.2h8.1a57.72,57.72,0,0,1,.8-5.8Zm-9.9,6.4c-.7,3.4-1.4,10.4-6.6,10.4-2.9,0-2.6-2.7-2.2-5,1.3-5.6,4.4-5.2,8.8-5.4" style="fill:#f26522"/><path d="M440.1,61.5h7.6L446,67.8h-7.6ZM336.4,55.3H344l-1.7,6.3h-7.6ZM215.1,9.9h7.6L221,16.2h-7.6Zm95.1,9.5h71.3l-1.2,3.8H365.9l-2.4,9.1a10.86,10.86,0,0,1,8-3.2c4,0,7,2,6.1,5.4l-5.1,19.9h-8.4l4.4-17.1c.6-2.2.5-3.9-2.1-3.9-1.9,0-3.3,1.6-4.1,3.3l-2.1,8c-.4,1.6-2.7,11.4-3,13h-8.7l2.6-10.6a10.83,10.83,0,0,1-8,3c-4,0-7-2-6.1-5.4l5.6-21.6H336l-8.9,34.7h-8L328,23.1h-6.3l-8.9,34.7h-8l4.7-18.2H303l1.1-3.9h6.4l3.2-12.6h-4.9Zm47.3,3.8h-6.3l-4.9,18.9c-.6,2.2-.5,3.8,2.2,3.8s3.7-2.5,4.3-4.7ZM285.7,57.8H273.8l1-3.9h10.4c2.6,0,6.5-1.5,7.8-6.7.8-3.3-.6-7.1-5.3-7.1h-7.8l1-4.3h9c3.2,0,5.7-2.7,6.6-6.3.7-2.7.5-6.4-4.2-6.4h-9.7l1-3.9h11.6c5.9,0,12.3,2.5,10.6,9.6-1.3,5.3-4,7.9-10.2,8.9,6.4.9,7.7,5.2,6.4,10.3-2.3,9.4-12.3,9.8-16.3,9.8M198.2,19.4l-7-8.6L197,6.5l7.4,12.9h2.2L200.7,3.8l7-3.1,4.1,18.8h46.4l-1.1,3.7H241l-2,8a10.09,10.09,0,0,1,8-3.3c8.7,0,6.8,8.2,5.5,13.3S249,53.5,240.6,53.5a5.79,5.79,0,0,1-4-1.1l.6-2.2c.2,0,.5.2.8.2,3.6,0,4.6-4.3,5.9-9.3,1.6-6.2,1.7-8.8-1.3-8.8-2.5,0-4,1.9-5.4,6.7l-4.7,19h-7.9l2.1-7.5a10.14,10.14,0,0,1-8,3.2c-8.7,0-6.7-8.7-5.4-13.8s3.4-12,11.8-12c3,0,4.9.7,6.1,2.9l1.9-7.4H211.6l-8.9,34.7h-8l2.1-7.6c-2.3,2.4-6.3,3.2-9.5,3.2-8.7,0-6.9-8.8-5.6-14,1.3-5,3.6-11.8,12.1-11.8,3,0,6.4.8,7.6,2.9l1.9-7.4H183.9l1.2-3.8h13.1Zm-6.1,14.8,6.2,8.1.5-1.8c1.3-5,2.3-8.4-2.3-8.5a4.46,4.46,0,0,0-4.4,2.2m4.7,11.9-6.4-8.2c-.2.8-.4,1.6-.7,2.5-1.6,6.2-1.5,8.8,2.3,8.8a4.82,4.82,0,0,0,4.8-3.1m27.7,11.7c2.1-7.6,2.1-7.5,2.1-7.5ZM223,49.2c2.9,0,4.1-2.6,5.7-8.8,1.3-5,2.2-8.4-1.2-8.4-3.6,0-4.4,3.4-5.7,8.4-1.7,6.2-1.9,8.8,1.2,8.8M456.7,30.4l1.7-7.2H434.8l-8.9,34.7h-8l2.1-7.6c-2.3,2.4-6.3,3.2-9.5,3.2-8.7,0-7.2-8.3-5.9-13.5,1.3-5,3.9-12.3,12.4-12.3,3,0,6.4.8,7.6,2.9l1.9-7.4H407.2l1.2-3.8H465l-7-8.6,5.8-4.3,7.4,12.9h2.2L467.5,3.8l7-3.1,4.1,18.8h53.5l-1.2,3.8h-4.5L517.5,58h-8l8.9-34.7h-6.9l-2.8,8.8H497.6c-3.6,0-4.6,4.3-6.1,10.7-1.8,7.7-3.2,12.3,1.8,12.3a4.51,4.51,0,0,0,1.6-.4c-.5-4.7,2.2-10.3,7.8-10.3,5.1,0,5.1,2.8,4.4,5.3-1,3.5-2.8,5.4-6.2,6.3,1.8,3.3,6.1,3.6,6.1,3.6l-8.6,4.7a13.5,13.5,0,0,1-3.5-6.8,23.13,23.13,0,0,1-6.2.7c-10.3,0-8.6-10-6.8-16.8,1.8-7,4.8-13.1,13.3-13.1,3,0,6.4.2,6.4.2l1.5-5.3H480.7l-8.9,34.7h-8l8.9-34.7h-6.4l-3,12.2h-8c.7-2.7-.6-3.7-4-3.7-3.1,0-4,.4-5.3,4.8-.9,3.8.2,4.5,3.9,4.4h6.4c4.7,0,5.5,1.8,3.9,8.7-2.1,7.8-5.9,8.3-10.6,8.3h-9.3c-8.1,0-8.4-3.6-6.6-9.5h9.2c-.8,3.1-2.7,6.2,2.7,6.2,3.2,0,4.3-.8,5.5-5.3,1-3.2,1.3-4.9-3.7-4.9,0,0-4.3-.1-6.4-.1-5.5,0-4.6-4.6-3.6-8.4,1.9-7.1,3.3-8,11.4-8,5,.1,7.2.6,7.9,2.5m-41.4,4.1,6.3,8.2.6-2.2c1.3-5,2.3-8.4-2.3-8.5a4.71,4.71,0,0,0-4.6,2.5m4.1,12-6.3-8.2-.5,2.1c-1.6,6.2-1.5,8.8,2.3,8.8a4.78,4.78,0,0,0,4.5-2.7M340.3,7.3c-2,7.5-5.4,7.9-9.7,7.9h-8.4c-7,0-7.6-3-6.2-7.9h8.3c-.8,2.6-1.8,4.9,2.6,4.9,2.9,0,3.9-.7,5-4.8Z" style="fill:#f26522"/></symbol></defs><title>Bank of Baroda logo - Brandlogos.net</title><use width="532.1" height="130.2" transform="translate(0 0) scale(0.57)" xlink:href="#a"/></svg>