<svg xmlns="http://www.w3.org/2000/svg" viewBox="0 0 377.1 85.67"><title>BHIM logo - Brandlogos.net</title><polygon points="358.63 0 377.1 33.8 338.26 67.58 358.63 0" style="fill:#088b45"/><polygon points="345.67 0 364.14 33.8 325.28 67.58 345.67 0" style="fill:#f17a21"/><path d="M413.74,534.53a8.94,8.94,0,0,0,3.58-4.76l6.15-20.26a4.67,4.67,0,0,0-.74-4.63,5.72,5.72,0,0,0-4.63-1.87,9.86,9.86,0,0,0,5.79-1.92,8.83,8.83,0,0,0,3.55-4.68l6.15-20.22a5.1,5.1,0,0,0-.61-4.87,5.53,5.53,0,0,0-4.67-1.93H348.19l-20.37,67.07H408a9.84,9.84,0,0,0,5.79-1.92m-55-52h52.78a5.28,5.28,0,0,1,3.36,2.36,8.63,8.63,0,0,1,.4,2.56,8.89,8.89,0,0,1-.12,1.39l-.15.45-.51,1.69a9.88,9.88,0,0,1-7.94,5.48H354.55Zm47.48,35.72a9.9,9.9,0,0,1-7.71,5.13H346.38l4.19-13.82h52.68a5.05,5.05,0,0,1,3.86,3.61,7.69,7.69,0,0,1,.1,1.21c0,.21,0,.42,0,.62l0,.26Z" transform="translate(-323.45 -469.17)" style="fill:#6e6f71"/><polygon points="194.09 0.26 186.03 27.2 128.23 27.2 136.28 0.26 121.91 0.26 101.91 67.11 116.29 67.11 124.32 40.28 182.13 40.28 174.1 67.11 188.48 67.11 208.47 0.26 194.09 0.26" style="fill:#6e6f71"/><polygon points="212.65 67.33 198.18 67.33 218.3 0.49 232.77 0.49 212.65 67.33" style="fill:#6e6f71"/><polygon points="333.4 0.43 273.35 47.23 252.42 15.22 242.75 0.43 242.47 0.43 237.92 15.62 222.48 67.07 236.85 67.07 247.68 31 270.61 67.16 308.56 35.15 299.04 67.07 313.43 67.07 327.46 20.29 333.43 0.43 333.4 0.43" style="fill:#6e6f71"/><path d="M323.45,554.43l2.57-9.88h2.87a9.53,9.53,0,0,1,1.79.11,2.14,2.14,0,0,1,.9.38,1.58,1.58,0,0,1,.59.88,2.29,2.29,0,0,1,0,1.21,2.71,2.71,0,0,1-.77,1.32,3,3,0,0,1-1.41.74,1.78,1.78,0,0,1,1.36.79,2.07,2.07,0,0,1,.15,1.65,3.49,3.49,0,0,1-.55,1.14,3.38,3.38,0,0,1-.93.92,3.67,3.67,0,0,1-1.31.59,12.09,12.09,0,0,1-2.37.16Zm2.16-1.34h.64a10.68,10.68,0,0,0,1.47-.08,2.67,2.67,0,0,0,.83-.23,2,2,0,0,0,1-1.26,1.36,1.36,0,0,0,0-.83,1.06,1.06,0,0,0-.5-.54,2.37,2.37,0,0,0-.56-.17,6.62,6.62,0,0,0-.88-.05h-1.2Zm1.13-4.37h.72a4.63,4.63,0,0,0,2-.31,1.58,1.58,0,0,0,.82-1.06c.15-.54.07-.92-.21-1.14a3.38,3.38,0,0,0-1.84-.33h-.7Z" transform="translate(-323.45 -469.17)" style="fill:#6e6f71"/><polygon points="13.99 85.26 16.57 75.38 18.42 75.38 17.46 79.02 23.08 79.02 24.02 75.38 25.87 75.38 23.29 85.26 21.44 85.26 22.69 80.46 17.1 80.46 15.84 85.26 13.99 85.26" style="fill:#6e6f71"/><path d="M361.69,554.43l-.62-2.55h-4.52l-2,2.55h-2l8.19-10.28,2.83,10.28Zm-4.11-3.89h3.18l-.58-2.25c0-.15-.06-.31-.08-.5s0-.39-.06-.62c-.11.22-.24.42-.35.6l-.35.52Z" transform="translate(-323.45 -469.17)" style="fill:#6e6f71"/><path d="M372.42,550l-1.16,4.42h-1.73l2.58-9.89h2.58a9.41,9.41,0,0,1,1.73.12,2.36,2.36,0,0,1,1,.42,1.77,1.77,0,0,1,.58.93,2.63,2.63,0,0,1,0,1.24,3.42,3.42,0,0,1-1.14,1.86,4,4,0,0,1-2.16.81l2.75,4.5h-2.1L372.63,550Zm.44-1.25h.34a4.7,4.7,0,0,0,2-.3,1.55,1.55,0,0,0,.76-1c.14-.55.07-.93-.22-1.16a3.29,3.29,0,0,0-1.83-.34h-.34Z" transform="translate(-323.45 -469.17)" style="fill:#6e6f71"/><path d="M390.79,554.43l-.63-2.55h-4.51l-2,2.55h-1.94l8.18-10.28,2.84,10.28Zm-4.11-3.89h3.18l-.58-2.25c0-.15-.06-.31-.09-.5s0-.39-.06-.62c-.11.22-.23.42-.34.6l-.35.52Z" transform="translate(-323.45 -469.17)" style="fill:#6e6f71"/><polygon points="80.2 76.73 77.98 85.26 76.14 85.26 78.34 76.73 75.33 76.73 75.68 75.38 83.57 75.38 83.21 76.73 80.2 76.73" style="fill:#6e6f71"/><polygon points="96.87 85.26 99.45 75.38 101.3 75.38 98.72 85.26 96.87 85.26" style="fill:#6e6f71"/><path d="M429.65,554.43l2.68-10.28,5.67,6,.45.54c.15.2.3.42.47.66l1.78-6.85h1.71l-2.67,10.27L434,548.67c-.15-.17-.3-.34-.44-.53a5.17,5.17,0,0,1-.37-.58l-1.79,6.87Z" transform="translate(-323.45 -469.17)" style="fill:#6e6f71"/><polygon points="129.7 76.73 127.49 85.26 125.63 85.26 127.85 76.73 124.83 76.73 125.19 75.38 133.07 75.38 132.72 76.73 129.7 76.73" style="fill:#6e6f71"/><polygon points="136.72 85.26 139.29 75.38 145.65 75.38 145.3 76.73 140.8 76.73 140.15 79.22 144.65 79.22 144.28 80.63 139.78 80.63 138.95 83.83 143.45 83.83 143.08 85.26 136.72 85.26" style="fill:#6e6f71"/><path d="M476.36,550l-1.16,4.42h-1.73l2.57-9.89h2.59a9.24,9.24,0,0,1,1.73.12,2.41,2.41,0,0,1,1,.42,1.8,1.8,0,0,1,.58.93,2.71,2.71,0,0,1,0,1.24,3.38,3.38,0,0,1-1.15,1.86,3.93,3.93,0,0,1-2.16.81l2.74,4.5H479.2L476.57,550Zm.44-1.25h.34a4.65,4.65,0,0,0,2-.3,1.53,1.53,0,0,0,.76-1c.15-.55.08-.93-.21-1.16a3.29,3.29,0,0,0-1.83-.34h-.33Z" transform="translate(-323.45 -469.17)" style="fill:#6e6f71"/><polygon points="163.75 85.26 166.33 75.38 172.67 75.38 172.32 76.73 167.82 76.73 167.18 79.21 171.69 79.21 171.31 80.61 166.81 80.61 165.6 85.26 163.75 85.26" style="fill:#6e6f71"/><path d="M507.33,554.43l-.64-2.55h-4.5l-2,2.55h-1.95l8.19-10.28,2.84,10.28Zm-4.1-3.89h3.18l-.58-2.25c0-.15-.06-.31-.08-.5a5.12,5.12,0,0,1-.06-.62c-.12.22-.24.42-.36.6s-.23.36-.35.52Z" transform="translate(-323.45 -469.17)" style="fill:#6e6f71"/><path d="M526,546.94a4.4,4.4,0,0,0-1.43-.87,5.2,5.2,0,0,0-1.78-.29,5.54,5.54,0,0,0-3.31,1,4.72,4.72,0,0,0-1.87,2.69,2.8,2.8,0,0,0,.45,2.64,3.19,3.19,0,0,0,2.6,1,6.84,6.84,0,0,0,2-.31,8.53,8.53,0,0,0,2-.94l-.46,1.82a7.3,7.3,0,0,1-1.81.69,8,8,0,0,1-2,.23,6.74,6.74,0,0,1-2.32-.36,4.29,4.29,0,0,1-1.67-1.1,3.57,3.57,0,0,1-.85-1.68,4.68,4.68,0,0,1,.09-2,6.08,6.08,0,0,1,1-2,7.38,7.38,0,0,1,1.74-1.69,8.06,8.06,0,0,1,4.69-1.47,6.38,6.38,0,0,1,1.86.25,5.44,5.44,0,0,1,1.56.76Z" transform="translate(-323.45 -469.17)" style="fill:#6e6f71"/><polygon points="207.69 85.26 210.26 75.38 216.61 75.38 216.25 76.73 211.76 76.73 211.1 79.22 215.61 79.22 215.24 80.63 210.74 80.63 209.9 83.83 214.41 83.83 214.04 85.26 207.69 85.26" style="fill:#6e6f71"/><polygon points="230.59 85.26 233.17 75.38 239.52 75.38 239.16 76.73 234.66 76.73 234.02 79.21 238.53 79.21 238.16 80.61 233.66 80.61 232.45 85.26 230.59 85.26" style="fill:#6e6f71"/><path d="M580.18,549.51a5.79,5.79,0,0,1-1,2,7.43,7.43,0,0,1-1.76,1.67,8.66,8.66,0,0,1-2.28,1.13,7.75,7.75,0,0,1-2.42.39,6,6,0,0,1-2.24-.39,4.36,4.36,0,0,1-1.69-1.12,3.55,3.55,0,0,1-.88-1.66,4.16,4.16,0,0,1,.06-2,5.9,5.9,0,0,1,1-2,7.47,7.47,0,0,1,1.76-1.68A8.63,8.63,0,0,1,573,544.7a7.88,7.88,0,0,1,2.44-.38,6.16,6.16,0,0,1,2.24.38,4.41,4.41,0,0,1,1.68,1.13,3.61,3.61,0,0,1,.88,1.69,4.15,4.15,0,0,1-.06,2m-1.94,0a3.05,3.05,0,0,0,.06-1.43,2.6,2.6,0,0,0-.58-1.2,3,3,0,0,0-1.13-.8,4.19,4.19,0,0,0-1.53-.28,5.19,5.19,0,0,0-1.66.28,5.87,5.87,0,0,0-1.56.8,5.05,5.05,0,0,0-1.21,1.19,4.27,4.27,0,0,0-.68,1.44,3,3,0,0,0-.06,1.41,2.6,2.6,0,0,0,.59,1.2,3,3,0,0,0,1.14.8,4.15,4.15,0,0,0,1.53.27,5.38,5.38,0,0,0,1.66-.27,5.89,5.89,0,0,0,1.55-.8,5.5,5.5,0,0,0,1.23-1.21,4.05,4.05,0,0,0,.67-1.41" transform="translate(-323.45 -469.17)" style="fill:#6e6f71"/><path d="M588.72,550l-1.15,4.42h-1.73l2.57-9.89H591a9.34,9.34,0,0,1,1.73.12,2.42,2.42,0,0,1,1,.42,1.76,1.76,0,0,1,.58.93,2.47,2.47,0,0,1,0,1.24,3.41,3.41,0,0,1-1.15,1.86,3.94,3.94,0,0,1-2.16.81l2.75,4.5h-2.1L588.93,550Zm.44-1.25h.34a4.75,4.75,0,0,0,2-.3,1.59,1.59,0,0,0,.76-1c.14-.55.07-.93-.22-1.16a3.29,3.29,0,0,0-1.83-.34h-.34Z" transform="translate(-323.45 -469.17)" style="fill:#6e6f71"/><path d="M619.74,549.54c0-.07,0-.28.08-.63s.06-.52.08-.72a6.3,6.3,0,0,1-.38.67,7.65,7.65,0,0,1-.5.69l-4.35,5.27-1.58-5.38a5.42,5.42,0,0,1-.16-.64c0-.21-.06-.42-.08-.62-.06.21-.14.42-.23.65a6,6,0,0,1-.34.72l-2.49,4.87h-1.71l5.39-10.31,1.72,6.24c0,.1.06.26.11.49s.11.52.16.86c.19-.29.45-.65.8-1.09l.2-.27,4.91-6.23.07,10.31h-1.72Z" transform="translate(-323.45 -469.17)" style="fill:#6e6f71"/><path d="M640.7,549.51a5.66,5.66,0,0,1-1,2,7.55,7.55,0,0,1-1.76,1.67,8.9,8.9,0,0,1-2.27,1.13,7.85,7.85,0,0,1-2.43.39,6.07,6.07,0,0,1-2.24-.39,4.35,4.35,0,0,1-1.68-1.12,3.61,3.61,0,0,1-.89-1.66,4.18,4.18,0,0,1,.07-2,5.85,5.85,0,0,1,1-2,7.38,7.38,0,0,1,1.76-1.68,8.58,8.58,0,0,1,2.27-1.13,7.92,7.92,0,0,1,2.45-.38,6.09,6.09,0,0,1,2.23.38,4.38,4.38,0,0,1,1.68,1.13,3.65,3.65,0,0,1,.89,1.69,4.11,4.11,0,0,1-.07,2m-1.93,0a3.07,3.07,0,0,0,.06-1.43,2.63,2.63,0,0,0-.59-1.2,3,3,0,0,0-1.14-.8,4.11,4.11,0,0,0-1.52-.28,5.21,5.21,0,0,0-1.67.28,6.09,6.09,0,0,0-1.56.8,5.25,5.25,0,0,0-1.21,1.19,4.19,4.19,0,0,0-.69,1.44,3.13,3.13,0,0,0-.06,1.41,2.62,2.62,0,0,0,.59,1.2,3,3,0,0,0,1.14.8,4.12,4.12,0,0,0,1.52.27,5.36,5.36,0,0,0,1.67-.27,6,6,0,0,0,1.55-.8,5.4,5.4,0,0,0,1.22-1.21,4.08,4.08,0,0,0,.68-1.41" transform="translate(-323.45 -469.17)" style="fill:#6e6f71"/><path d="M646.36,554.43,649,544.15l5.67,6c.15.17.31.36.45.54s.31.42.47.66l1.78-6.85h1.71l-2.68,10.27-5.78-6.15c-.15-.17-.3-.34-.43-.53a6.92,6.92,0,0,1-.38-.58l-1.79,6.87Z" transform="translate(-323.45 -469.17)" style="fill:#6e6f71"/><polygon points="340.51 85.26 343.08 75.38 349.44 75.38 349.09 76.73 344.58 76.73 343.94 79.22 348.45 79.22 348.07 80.63 343.57 80.63 342.74 83.83 347.25 83.83 346.87 85.26 340.51 85.26" style="fill:#6e6f71"/><path d="M679.71,554.43l1.18-4.53-2.44-5.36h1.94l1.52,3.35.13.33c0,.14.09.29.13.46l.35-.45.36-.39,3.31-3.31H688l-5.32,5.36-1.17,4.53Z" transform="translate(-323.45 -469.17)" style="fill:#6e6f71"/></svg>