<svg id="Layer_1" data-name="Layer 1" xmlns="http://www.w3.org/2000/svg" viewBox="0 0 697.81 93.01"><title>Capital Small Finance Bank logo - Brandlogos.net</title><rect x="0.06" width="697.75" height="74.4" style="fill:#da241a"/><polygon points="634.31 10.39 655.34 10.39 655.34 14.74 650.36 14.76 660.99 25.25 648.86 37.31 638.69 27.22 638.69 31.32 634.31 31.32 634.31 10.39" style="fill:#fefefe;fill-rule:evenodd"/><polygon points="687.8 10.39 666.78 10.39 666.78 14.74 671.75 14.76 661.13 25.25 673.25 37.31 683.42 27.22 683.42 31.32 687.8 31.32 687.8 10.39" style="fill:#fefefe;fill-rule:evenodd"/><polygon points="634.31 63.89 655.34 63.89 655.34 59.54 650.36 59.52 660.99 49.02 648.86 36.97 638.69 47.05 638.69 42.95 634.31 42.95 634.31 63.89" style="fill:#fefefe;fill-rule:evenodd"/><polygon points="687.8 63.89 666.78 63.89 666.78 59.54 671.75 59.52 661.13 49.02 673.25 36.97 683.42 47.05 683.42 42.95 687.8 42.95 687.8 63.89" style="fill:#fefefe;fill-rule:evenodd"/><path d="M629.09,389.67l8.57-37.48h8.58l-4.33,18.72,7.43-8.91h9.87l-10.28,10.77,4.31,16.91H644l-2-10.26-2.76,3-1.69,7.31Zm-28.18,0L607.27,362h7.83l-.79,3.65a13.85,13.85,0,0,1,3.83-3.34,8.38,8.38,0,0,1,4.12-1.09,5.82,5.82,0,0,1,5.08,2.4,9.11,9.11,0,0,1,1.25,6.47q-.08.76-.25,1.69c-.11.62-.24,1.27-.4,1.95l-3.54,16h-8.59L619.27,374c.1-.39.17-.69.2-.89s.06-.38.08-.54a3.07,3.07,0,0,0-.49-2.26,2.2,2.2,0,0,0-1.88-.87,3.3,3.3,0,0,0-2.66,1.32,10.24,10.24,0,0,0-1.71,4.1l-3.32,14.75Zm-12.11,0v-2.6a16,16,0,0,1-4,2.61,10.15,10.15,0,0,1-4.08.88,6.21,6.21,0,0,1-5.06-2.11,7.19,7.19,0,0,1-1.36-5.6q.53-4.76,3.28-7.11t8.82-3.12l1.24-.13q4.33-.51,4.56-2.58a1.92,1.92,0,0,0-.56-1.72,2.81,2.81,0,0,0-2-.63,3.48,3.48,0,0,0-2.27.68,3.56,3.56,0,0,0-1.1,2.14H578a11.25,11.25,0,0,1,4.28-7q3.23-2.31,8.77-2.31,5.14,0,7.57,2.23c1.63,1.49,2.29,3.64,2,6.48q-.08.72-.28,1.8c-.14.72-.3,1.49-.5,2.3l-2.36,10c-.15.6-.26,1.08-.34,1.44s-.12.66-.15.88a5.79,5.79,0,0,0,0,1.53,3.64,3.64,0,0,0,.44,1.22l-.08.74Zm1.77-12.36q-1.41.53-3.6,1.12-3.58.94-3.84,3.26a2.07,2.07,0,0,0,.43,1.67,2,2,0,0,0,1.56.63,4.39,4.39,0,0,0,3.54-1.76A10.07,10.07,0,0,0,590.56,377.32ZM543,389.67l8.7-37.48h12.51q6.22,0,8.72,2.25t1.95,7.25a14.25,14.25,0,0,1-1.6,5.42,10.4,10.4,0,0,1-3.51,3.66,5.59,5.59,0,0,1,2.46,2.94,9.5,9.5,0,0,1,.48,4.54q-.63,5.69-4,8.57t-9.31,2.86ZM554.32,381H559a5.49,5.49,0,0,0,3.46-.91,4.21,4.21,0,0,0,1.37-3,2.74,2.74,0,0,0-.65-2.48,4.9,4.9,0,0,0-3.14-.75h-4.13Zm3.11-13.76h3.94a5.14,5.14,0,0,0,3.24-.85,4,4,0,0,0,1.27-2.79,2.42,2.42,0,0,0-.61-2.28c-.53-.43-1.65-.65-3.37-.65H559Zm-39.21,14.4h8.33a13.35,13.35,0,0,1-4.94,6.71,13.86,13.86,0,0,1-8.12,2.35q-5.6,0-8.46-3.53t-2.19-9.56q.84-7.57,4.88-12.07a12.89,12.89,0,0,1,10-4.51q5.87,0,8.53,3.71t1.87,10.79c-.05.44-.11.89-.18,1.34s-.16.9-.25,1.36h-16.2l-.05.48a5.92,5.92,0,0,0,.56,3.83,3,3,0,0,0,2.71,1.32,4,4,0,0,0,2.19-.58A3.26,3.26,0,0,0,518.22,381.6Zm-5.76-8.87h7.67a6.26,6.26,0,0,0-.55-3.74,2.63,2.63,0,0,0-2.45-1.31,3.83,3.83,0,0,0-2.89,1.33A8,8,0,0,0,512.46,372.73Zm-20.91,6.2H500a17,17,0,0,1-5,8.67,12.44,12.44,0,0,1-8.46,3q-5.51,0-8.3-3.56t-2.12-9.63q.83-7.43,4.86-11.9a12.82,12.82,0,0,1,9.92-4.47q5.34,0,8,3t2.17,8.36h-8.25a4.4,4.4,0,0,0-.52-2.9,2.44,2.44,0,0,0-2.16-1q-2.05,0-3.49,2.42a17,17,0,0,0-1.9,6.7,7.63,7.63,0,0,0,.38,4.1,2.41,2.41,0,0,0,2.34,1.37A3.39,3.39,0,0,0,490,382,6.53,6.53,0,0,0,491.54,378.93Zm-45.29,10.74L452.61,362h7.83l-.79,3.65a13.85,13.85,0,0,1,3.83-3.34,8.38,8.38,0,0,1,4.12-1.09,5.82,5.82,0,0,1,5.08,2.4,9.12,9.12,0,0,1,1.25,6.47q-.08.76-.25,1.69c-.11.62-.24,1.27-.4,1.95l-3.54,16h-8.59L464.62,374q.15-.59.2-.89c0-.21.06-.38.08-.54a3.07,3.07,0,0,0-.49-2.26,2.2,2.2,0,0,0-1.88-.87,3.3,3.3,0,0,0-2.66,1.32,10.24,10.24,0,0,0-1.71,4.1l-3.32,14.75Zm-12.11,0v-2.6a16.09,16.09,0,0,1-4,2.61,10.15,10.15,0,0,1-4.08.88,6.21,6.21,0,0,1-5.06-2.11,7.19,7.19,0,0,1-1.36-5.6q.53-4.76,3.28-7.11t8.82-3.12l1.24-.13q4.33-.51,4.56-2.58a1.92,1.92,0,0,0-.56-1.72,2.81,2.81,0,0,0-2-.63,3.48,3.48,0,0,0-2.27.68,3.56,3.56,0,0,0-1.1,2.14h-8.29a11.25,11.25,0,0,1,4.28-7q3.23-2.31,8.77-2.31c3.43,0,5.95.75,7.57,2.23s2.29,3.64,2,6.48q-.08.72-.28,1.8c-.14.72-.3,1.49-.5,2.3l-2.36,10c-.15.6-.26,1.08-.34,1.44s-.12.66-.15.88a5.73,5.73,0,0,0,0,1.53,3.66,3.66,0,0,0,.44,1.22l-.08.74Zm1.77-12.36q-1.41.53-3.6,1.12-3.58.94-3.84,3.26a2.07,2.07,0,0,0,.43,1.67,2,2,0,0,0,1.56.63,4.39,4.39,0,0,0,3.54-1.76A10.07,10.07,0,0,0,435.91,377.32Zm-44.84,12.36L397.43,362h7.83l-.79,3.65a13.86,13.86,0,0,1,3.83-3.34,8.38,8.38,0,0,1,4.12-1.09,5.82,5.82,0,0,1,5.08,2.4,9.12,9.12,0,0,1,1.25,6.47q-.08.76-.25,1.69c-.11.62-.24,1.27-.4,1.95l-3.54,16H406L409.44,374q.15-.59.2-.89c0-.21.06-.38.08-.54a3.08,3.08,0,0,0-.49-2.26,2.2,2.2,0,0,0-1.88-.87,3.3,3.3,0,0,0-2.66,1.32,10.24,10.24,0,0,0-1.71,4.1l-3.32,14.75Zm-13.27,0L384.12,362h8.58l-6.31,27.68Zm6.86-30.76,1.78-7.66H395l-1.7,7.66Zm-31.49,30.76,8.74-37.48h21.19l-2.19,9.17H369.2l-1.42,5.94h10l-2.12,8.91h-9.9l-3.08,13.45Zm-27.39,0,8.28-37.48h8.54l-8.25,37.48Zm-13.19,0,8.28-37.48h8.54l-8.24,37.48Zm-12.2,0v-2.6a16.07,16.07,0,0,1-4,2.61,10.15,10.15,0,0,1-4.08.88,6.21,6.21,0,0,1-5.06-2.11,7.2,7.2,0,0,1-1.36-5.6q.53-4.76,3.28-7.11t8.82-3.12l1.24-.13q4.33-.51,4.56-2.58a1.92,1.92,0,0,0-.55-1.72,2.81,2.81,0,0,0-2-.63,3.48,3.48,0,0,0-2.27.68,3.56,3.56,0,0,0-1.1,2.14h-8.29a11.25,11.25,0,0,1,4.28-7q3.23-2.31,8.77-2.31,5.14,0,7.57,2.23c1.63,1.49,2.29,3.64,2,6.48q-.08.72-.28,1.8c-.14.72-.3,1.49-.5,2.3l-2.36,10c-.15.6-.26,1.08-.33,1.44s-.12.66-.15.88a5.8,5.8,0,0,0,0,1.53,3.67,3.67,0,0,0,.44,1.22l-.08.74Zm1.77-12.36q-1.41.53-3.6,1.12-3.58.94-3.84,3.26a2.07,2.07,0,0,0,.43,1.67,2,2,0,0,0,1.56.63,4.39,4.39,0,0,0,3.54-1.76A10.07,10.07,0,0,0,302.17,377.32Zm-57.53,12.36L251,362h7.75l-.87,3.59a13.55,13.55,0,0,1,3.68-3.38,7.81,7.81,0,0,1,4-1.1,4.94,4.94,0,0,1,3.59,1.26,6.1,6.1,0,0,1,1.61,3.78,15.09,15.09,0,0,1,4-3.78A8,8,0,0,1,279,361.1a5.64,5.64,0,0,1,4.91,2.3,8.93,8.93,0,0,1,1.2,6.3q-.06.59-.23,1.51c-.11.63-.25,1.33-.42,2.13l-3.62,16.33h-8.38l3.44-15.43c.08-.33.15-.64.2-1s.1-.66.14-1a2.66,2.66,0,0,0-.36-1.94,1.87,1.87,0,0,0-1.6-.66,2.87,2.87,0,0,0-2.37,1.16,10.2,10.2,0,0,0-1.55,3.88l-3.47,15h-8.34L262,374.14c.08-.32.14-.63.2-.95s.1-.58.13-.83a2.73,2.73,0,0,0-.38-2,2.08,2.08,0,0,0-1.73-.66,2.71,2.71,0,0,0-2.24,1.12,10.08,10.08,0,0,0-1.49,3.72L253,389.67Zm-28.06-11.94h9.34v.1a3.83,3.83,0,0,0,.8,3.17,4.18,4.18,0,0,0,3.2,1.1,3.82,3.82,0,0,0,2.52-.77,3.3,3.3,0,0,0,1.09-2.26c.14-1.22-1-2.49-3.34-3.81l-1.35-.76q-5-2.91-6.58-5.51a9.91,9.91,0,0,1-1.17-6.44,12.29,12.29,0,0,1,4.11-8.35,13.68,13.68,0,0,1,9.22-3q5.71,0,8.69,3.19t2.68,9h-9a4,4,0,0,0-.85-2.83,3.41,3.41,0,0,0-2.63-.93,3,3,0,0,0-2,.74,2.77,2.77,0,0,0-1,1.83q-.19,1.65,4.09,4c1.12.62,2,1.13,2.71,1.52a12.25,12.25,0,0,1,4.84,4.65,10.62,10.62,0,0,1,1,6.3,13,13,0,0,1-4.38,8.86q-3.74,3.17-9.9,3.17-6.4,0-9.58-3.41T216.58,377.73Zm-28.47,11.94,8.28-37.48h8.54l-8.25,37.48Zm-12.2,0v-2.6a16.07,16.07,0,0,1-4,2.61,10.15,10.15,0,0,1-4.08.88,6.21,6.21,0,0,1-5.06-2.11,7.19,7.19,0,0,1-1.36-5.6q.53-4.76,3.28-7.11t8.82-3.12l1.24-.13q4.33-.51,4.56-2.58a1.92,1.92,0,0,0-.55-1.72,2.82,2.82,0,0,0-2-.63,3.48,3.48,0,0,0-2.27.68,3.56,3.56,0,0,0-1.1,2.14h-8.29a11.25,11.25,0,0,1,4.28-7q3.23-2.31,8.77-2.31c3.43,0,5.95.75,7.57,2.23s2.29,3.64,2,6.48q-.08.72-.28,1.8c-.14.72-.3,1.49-.5,2.3l-2.36,10c-.15.6-.26,1.08-.34,1.44s-.12.66-.15.88a5.74,5.74,0,0,0,0,1.53,3.66,3.66,0,0,0,.44,1.22l-.08.74Zm1.77-12.36q-1.41.53-3.6,1.12-3.58.94-3.84,3.26a2.07,2.07,0,0,0,.43,1.67,2,2,0,0,0,1.56.63,4.39,4.39,0,0,0,3.54-1.76A10.07,10.07,0,0,0,177.68,377.32ZM158,389.63c-.87.14-1.72.23-2.52.3s-1.58.1-2.31.1a5.21,5.21,0,0,1-5.77-6.43c0-.37.11-.81.21-1.31s.22-1.08.38-1.75l2.81-12.41h-3.14L149.1,362h3.13l1.92-8.5h8.33l-1.94,8.5h3.39l-1.4,6.15h-3.39l-2.44,10.68c0,.09,0,.18-.06.3s0,.28-.07.5a1.82,1.82,0,0,0,.39,1.6,2.61,2.61,0,0,0,1.8.49h.64l.42,0Zm-25.84,0L138.48,362h8.58l-6.31,27.68ZM139,358.91l1.78-7.66h8.58l-1.7,7.66Zm-37.44,41.5L110.22,362H118l-.71,3.28a11.38,11.38,0,0,1,3.38-3.21,7.65,7.65,0,0,1,3.93-1.06,6.52,6.52,0,0,1,6.08,3.41q2,3.42,1.28,9.44A24.86,24.86,0,0,1,127.65,386q-3.45,4.71-8,4.7a6.79,6.79,0,0,1-3.94-1.12,6.37,6.37,0,0,1-2.39-3.21l-3.16,14Zm19.06-31.49a4.12,4.12,0,0,0-3.45,2.24,14,14,0,0,0-1.87,6.06,6.09,6.09,0,0,0,.47,3.65,2.49,2.49,0,0,0,2.33,1.29,3.94,3.94,0,0,0,3.33-2.24,14.71,14.71,0,0,0,1.82-6.11,6.32,6.32,0,0,0-.41-3.63A2.32,2.32,0,0,0,120.64,368.92ZM91.72,389.67v-2.6a16.07,16.07,0,0,1-4,2.61,10.15,10.15,0,0,1-4.08.88,6.2,6.2,0,0,1-5.06-2.11,7.19,7.19,0,0,1-1.36-5.6q.53-4.76,3.28-7.11t8.82-3.12l1.24-.13q4.33-.51,4.56-2.58a1.92,1.92,0,0,0-.55-1.72,2.81,2.81,0,0,0-2-.63,3.48,3.48,0,0,0-2.27.68,3.57,3.57,0,0,0-1.1,2.14H80.9a11.25,11.25,0,0,1,4.28-7q3.23-2.31,8.77-2.31,5.14,0,7.57,2.23c1.63,1.49,2.29,3.64,2,6.48q-.08.72-.28,1.8c-.14.72-.3,1.49-.5,2.3l-2.36,10c-.15.6-.26,1.08-.33,1.44s-.12.66-.15.88a5.78,5.78,0,0,0,0,1.53,3.67,3.67,0,0,0,.44,1.22l-.08.74Zm1.77-12.36q-1.41.53-3.6,1.12-3.58.94-3.84,3.26a2.07,2.07,0,0,0,.43,1.67A2,2,0,0,0,88,384a4.39,4.39,0,0,0,3.54-1.76A10.08,10.08,0,0,0,93.48,377.32ZM67.33,375.4h9.25a22.3,22.3,0,0,1-6.21,11.29A14.69,14.69,0,0,1,60,390.77q-6.85,0-10.24-4.84t-2.44-13.27a30.74,30.74,0,0,1,2-8.05,26.59,26.59,0,0,1,4-6.89,18.19,18.19,0,0,1,5.9-4.9,15.39,15.39,0,0,1,7.07-1.67q6.22,0,9.25,3.93t2.64,11.41l-9,0a7,7,0,0,0-.78-4.47,3.54,3.54,0,0,0-3.18-1.61q-3.13,0-5.47,3.58a21.4,21.4,0,0,0-3,9.41q-.44,4,.57,6a3.54,3.54,0,0,0,3.43,2,5.44,5.44,0,0,0,3.76-1.56A11.13,11.13,0,0,0,67.33,375.4Z" transform="translate(-35.1 -337.5)" style="fill:#fefefe"/><rect y="73.22" width="697.75" height="9.9" style="fill:#fefefe"/><rect y="81.35" width="697.75" height="11.65" style="fill:#a9a8a8"/></svg>