<?xml version="1.0" encoding="utf-8"?>
<!-- Generator: Adobe Illustrator 19.0.0, SVG Export Plug-In . SVG Version: 6.00 Build 0)  -->
<svg version="1.1" id="Layer_1" xmlns="http://www.w3.org/2000/svg" xmlns:xlink="http://www.w3.org/1999/xlink" x="0px" y="0px"
	 viewBox="0 0 500 500" style="enable-background:new 0 0 500 500;" xml:space="preserve">
<style type="text/css">
	.st0{fill:#0044AA;}
</style>
<g id="XMLID_1_">
	<path id="XMLID_15_" class="st0" d="M383.8,256.3v-4.1h1.9l-1.9-6.5v-5h2.9l6.3,18.5h-5.5l-0.9-2.9H383.8z M394.8,240.7h5l6.3,10.3
		v-10.3h5v18.5h-5l-6.3-10.1v10.1h-5V240.7z M414.5,240.7h5.3v7l5.5-7h7l-6.2,7l6.3,11.5h-6.3l-3.6-7.5l-2.7,3.1v4.5h-5.3V240.7
		L414.5,240.7z M383.8,240.7v5v-0.2l-1.9,6.7h1.9v4.1h-3.1l-0.9,2.9h-5.3l6.3-18.5H383.8L383.8,240.7z M365.8,259.2v-3.9h0.3
		c1,0,1.5-0.2,1.9-0.5c0.5-0.3,0.7-0.9,0.7-1.4c0-0.5-0.2-1-0.7-1.4c-0.3-0.3-0.9-0.5-1.9-0.5h-0.3V248c0.9,0,1.4-0.2,1.7-0.5
		c0.3-0.3,0.5-0.7,0.5-1.4c0-0.5-0.2-0.9-0.5-1.2c-0.3-0.3-0.9-0.5-1.7-0.5v-3.8h2.2c1.7,0,2.9,0.5,3.8,1.4c0.9,0.9,1.4,2.1,1.4,3.3
		s-0.3,2.1-1,2.9c-0.3,0.5-1,0.9-1.7,1.2c1.2,0.3,2.1,0.9,2.6,1.7c0.7,0.7,0.9,1.7,0.9,2.9c0,0.9-0.2,1.7-0.5,2.6
		c-0.5,0.7-1,1.4-1.7,1.7c-0.5,0.3-1,0.5-2.1,0.7c-1.2,0.2-1.9,0.2-2.2,0.2L365.8,259.2L365.8,259.2z M365.8,240.7v3.8h-2.2v3.6h2.2
		v3.4h-2.2v3.8h2.2v3.9h-7.5v-18.5H365.8z M338.7,259.5v-4.3c1,0,1.9-0.3,2.6-1.2c0.7-0.7,1-2.2,1-4.3c0-1.7-0.3-2.9-1-3.8
		c-0.7-0.9-1.5-1.2-2.6-1.2v-4.3c2.7,0,5,0.7,6.5,2.4c1.5,1.7,2.2,3.9,2.2,7c0,2.1-0.3,3.9-1,5.3c-0.7,1.4-1.5,2.4-2.9,3.3
		c-1.2,0.7-2.7,1-4.6,1C338.7,259.5,338.7,259.5,338.7,259.5L338.7,259.5z M303.3,240.7h5.1v11.1c0,1-0.2,2.1-0.3,3.1
		c-0.3,1-0.9,1.9-1.5,2.6c-0.7,0.7-1.4,1.2-2.1,1.5c-1,0.3-2.2,0.5-3.8,0.5c-0.9,0-1.7,0-2.7-0.2c-0.9,0-1.7-0.3-2.4-0.7
		c-0.7-0.3-1.2-0.9-1.7-1.5c-0.7-0.7-1-1.5-1.2-2.2c-0.3-1.2-0.5-2.2-0.5-3.1v-11.1h5.3V252c0,1,0.2,1.9,0.7,2.4
		c0.5,0.7,1.4,0.9,2.2,0.9s1.5-0.2,2.1-0.9c0.5-0.5,0.9-1.4,0.9-2.4V240.7L303.3,240.7z M338.7,240.5v4.3c-1.2,0-2.1,0.3-2.6,1.2
		c-0.7,0.9-1,2.2-1,4.1c0,1.9,0.3,3.1,1,3.9c0.5,0.9,1.4,1.2,2.6,1.2v4.3c-1.9,0-3.4-0.3-4.6-0.9c-1.2-0.7-2.2-1.9-3.1-3.3
		c-0.7-1.4-1.2-3.3-1.2-5.3c0-3.1,0.9-5.5,2.4-7.2C333.7,241.2,335.9,240.5,338.7,240.5z M323.4,251.6l4.5,1.5
		c-0.2,1.4-0.7,2.6-1.4,3.6c-0.7,0.9-1.5,1.5-2.6,2.1c-0.9,0.5-2.2,0.7-3.6,0.7c-1.9,0-3.4-0.2-4.6-0.9c-1.2-0.5-2.2-1.5-3.1-3.1
		c-0.9-1.4-1.2-3.3-1.2-5.7c0-3.1,0.7-5.3,2.2-7c1.5-1.7,3.6-2.4,6.3-2.4c2.2,0,3.8,0.3,5.1,1.4c1.2,0.9,2.1,2.4,2.6,4.3l-4.6,1.2
		c-0.2-0.7-0.3-1-0.5-1.2c-0.2-0.5-0.5-0.9-1-1c-0.3-0.3-0.9-0.3-1.4-0.3c-1.2,0-2.1,0.5-2.7,1.5c-0.5,0.7-0.7,1.9-0.7,3.6
		c0,2.1,0.2,3.4,0.9,4.3c0.5,0.7,1.4,1,2.4,1s1.7-0.2,2.2-0.9C322.7,253.7,323.1,252.8,323.4,251.6"/>
	<path id="XMLID_16_" class="st0" d="M85.2,254.2v-3.8c0,0-2.6,1.9-5,2.4c-1.2,0.2-3.1,0.2-4.3-0.9c-0.7-0.7-0.7-1-1-1.5
		c0.7,0,3.6-0.3,4.8-2.6c1.4-2.2-0.9-4.8-0.9-4.8h3.8v-3.3H67.5v3.3h5.8c0,0,3.3,1,2.2,3.3c-0.9,1.9-5.5,1.2-5.5,1.2s0,1.5,0.3,3.1
		c0.9,3.1,4.5,5.5,8.1,5.5C82.8,256.4,85.2,254.2,85.2,254.2"/>
	<polyline id="XMLID_17_" class="st0" points="92,243.1 92,239.8 81.1,239.8 81.1,243.1 84.5,243.1 84.5,260 88.8,260 88.8,243.1 
		92,243.1 	"/>
	<path id="XMLID_18_" class="st0" d="M94.6,267.2c0,0-0.5-1.9-2.9-5.3c-2.2-3.1-7.9-3.8-10.8-1.2c-1.7,1.5-2.2,4.3,0.5,6
		c2.9,1.9,6.3,0.5,6.3,0.5l-0.9-2.4c0,0-1.7,0.7-3.1,0.2c-1.2-0.7-0.9-2.1,0-2.6c1.4-0.9,4.3-0.7,5.7,2.1c1.2,2.6,1.5,3.8,1.5,3.8
		L94.6,267.2"/>
	<path id="XMLID_22_" class="st0" d="M122.2,243.1v-3.3h-21.4v3.3h3.8v3.1c-1-0.7-2.2-1-3.8-1v3.1c2.1,0,3.8,0.9,3.8,2.6
		c0,2.2-2.4,2.9-3.8,2.9v3.3c2.2-0.2,3.8-1,3.8-1v4.1h4.3v-9.3c0,0,0.3-2.6,3.9-2.6c2.1,0,3.4,1,3.4,2.9c0,1.5-2.1,2.6-3.8,2.6v3.1
		c4.3,0.2,8.2-2.4,7.9-6.2c-0.3-3.3-3.6-5.1-7.7-5.1c-1.9,0-3.1,0.3-3.8,0.7v-3.1L122.2,243.1L122.2,243.1z M90.7,239.8h10.1v3.3
		H90.7V239.8z M100.8,245.1v3.1h-0.2c-2.6,0-3.4,1.5-3.4,2.7c0,1.7,1.9,2.7,3.6,2.7v3.3c-0.7,0-1.2,0-1.7-0.2
		c-2.9-0.5-6.2-2.2-6.2-6c0-3.3,3.4-5.8,7.7-5.7L100.8,245.1"/>
	<path id="XMLID_23_" class="st0" d="M111.6,240.7l-0.3-0.2v0.2c0,0.2,0,0.2,0,0.2C111.4,240.8,111.6,240.8,111.6,240.7"/>
	<polyline id="XMLID_24_" class="st0" points="131.1,243.1 131.1,239.8 120.2,239.8 120.2,243.1 123.6,243.1 123.6,260 127.7,260 
		127.7,243.1 131.1,243.1 	"/>
	<path id="XMLID_25_" class="st0" d="M127,240.2c0,0-0.9-3.6-2.2-5.3c-1.5-2.2-2.9-2.9-4.8-3.6c-2.1-0.7-5-0.5-5-0.5l0.7,3.1
		c0,0,1.7,0,3.1,0.3c1.4,0.3,2.6,1.5,3.1,2.4c1,1.9,1.4,3.6,1.4,3.6H127"/>
	<path id="XMLID_26_" class="st0" d="M130.6,240.7l-0.3-0.2v0.2c0,0.2,0,0.2,0,0.2C130.4,240.8,130.6,240.8,130.6,240.7"/>
	<path id="XMLID_27_" class="st0" d="M132,240.7v-0.2l-0.2,0.2c0,0.2,0,0.2,0.2,0.2C132,240.8,132,240.8,132,240.7"/>
	<path id="XMLID_36_" class="st0" d="M160,243.1h0.5v-3.3H160V243.1z M160,256.8v-6.2l3.3,2.2v2.9C163.2,255.8,162,256.4,160,256.8
		L160,256.8z M160,248.2v-3.1c2.2,0.5,3.3,1.4,3.3,1.4v3.3C163.2,249.8,161.7,248.6,160,248.2L160,248.2z M160,239.8h-3.3v3.3h3.3
		V239.8z M160,245.1v3.1c-0.2,0-0.3,0-0.3,0c-1-0.3-2.1-0.3-2.9,0V245c0.3,0,0.7,0,1,0C158.6,245,159.3,245,160,245.1z M160,250.6
		v6.2c-0.7,0.2-1.4,0.3-2.2,0.3c-0.3,0-0.7,0-1,0v-2.9c0.3,0,0.3,0,0.5,0c1.5,0.2,2.7-0.2,2.7-0.2l-3.3-2.2v-3.3L160,250.6z
		 M147.1,239.8h9.6v3.3h-9.6V239.8z M156.7,245c-3.6,0.3-7,2.7-7,6.2c0,3.4,3.3,5.7,7,6v-2.9c-1.2-0.3-3.1-1.4-3.1-2.9
		c0-1,0.5-1.4,0.5-1.4l2.6,1.9v-3.3l-0.3-0.3h0.3V245"/>
	<polyline id="XMLID_37_" class="st0" points="169.9,243.1 169.9,239.8 158.9,239.8 158.9,243.1 162.4,243.1 162.4,260 166.6,260 
		166.6,243.1 169.9,243.1 	"/>
	<path id="XMLID_44_" class="st0" d="M166.5,240c0,0-1.4-4.5-3.1-6.3c-1-1.4-2.2-2.2-3.6-2.7v3.4c0.3,0.3,0.9,0.9,1.2,1.4
		c1.5,2.1,2.1,4.3,2.1,4.3H166.5z M159.8,240v-3.6c0.3,0.3,0.7,0.7,0.9,1.2c0.9,1.2,1.2,2.4,1.2,2.4H159.8z M159.8,230.9
		c-0.5-0.3-1.2-0.5-1.7-0.7h-0.3v2.9c0.7,0.3,1.4,0.7,2.1,1.2V230.9z M159.8,236.4v3.6h-0.9c0,0-0.2-0.7-0.5-1.4
		c-0.2-0.3-0.3-0.7-0.7-1V235C158.4,235.4,159.1,235.9,159.8,236.4z M157.7,230.2v2.9c-0.3,0-0.3,0-0.5,0c-1-0.5-2.6-0.3-2.6-0.3
		l-1.4-2.9C153.3,229.9,155.8,229.7,157.7,230.2z M157.7,235c-0.3-0.2-0.7-0.2-1.2-0.3c-1.4-0.3-3.4-0.2-3.4-0.2l1,2.4
		c0,0,1-0.2,2.2,0.2c0.5,0.2,1,0.3,1.4,0.5V235"/>
	<path id="XMLID_56_" class="st0" d="M168.7,232.1c0-1-0.9-1.7-2.2-1.7c-0.3,0-0.7,0-1,0.2v2.9c0.3,0.2,0.7,0.3,1,0.3
		C167.8,233.8,168.7,233.1,168.7,232.1z M164.9,240v-4.1c0.2,0.5,0.3,0.9,0.5,1.4v2.7L164.9,240L164.9,240z M164.9,233.1v-2.2
		c0-0.2,0.2-0.2,0.5-0.3v2.9C165.1,233.5,164.9,233.3,164.9,233.1z M165.4,240h1c0,0-0.3-1.4-1-2.7V240z M164.9,230.9v2.2
		c-0.3-0.3-0.7-0.7-0.7-1C164.2,231.6,164.6,231.2,164.9,230.9L164.9,230.9z M164.9,235.9c-0.5-0.9-1-1.7-1.5-2.2
		c-1-1.4-2.2-2.2-3.6-2.7v3.4c0.3,0.3,0.9,0.9,1.2,1.4c1.5,2.1,2.1,4.3,2.1,4.3h1.9V235.9z M159.8,240v-3.6c0.3,0.3,0.7,0.7,0.9,1.2
		c0.9,1.2,1.2,2.4,1.2,2.4H159.8z M159.8,230.9v3.4c-0.7-0.5-1.4-0.9-2.1-1.2v-2.9h0.3C158.6,230.4,159.3,230.6,159.8,230.9z
		 M159.8,236.4v3.6h-0.9c0,0-0.2-0.7-0.5-1.4c-0.2-0.3-0.3-0.7-0.7-1V235C158.4,235.4,159.1,235.9,159.8,236.4z M157.7,230.2
		c-1.9-0.5-4.5-0.3-4.5-0.3l1.4,2.9c0,0,1.5-0.2,2.6,0.3c0.2,0,0.2,0,0.5,0V230.2z M157.7,235c-0.3-0.2-0.7-0.2-1.2-0.3
		c-1.4-0.3-3.4-0.2-3.4-0.2l1,2.4c0,0,1-0.2,2.2,0.2c0.5,0.2,1,0.3,1.4,0.5V235"/>
	<path id="XMLID_60_" class="st0" d="M200.3,243.1v-3.3h-21.4v3.3h3.8v3.1c-1.2-0.7-2.4-1-3.8-1v3.1c2.1,0,3.6,0.9,3.6,2.6
		c0,2.2-2.4,2.9-3.6,2.9v3.3c2.2-0.2,3.8-1,3.8-1v4.1h4.3v-9.3c0,0,0.3-2.6,3.8-2.6c2.2,0,3.6,1,3.6,2.9c0,1.5-2.2,2.6-3.9,2.6v3.1
		c4.5,0.2,8.2-2.4,7.9-6.2c-0.3-3.3-3.4-5.1-7.5-5.1c-1.9,0-3.3,0.3-3.8,0.7v-3.1L200.3,243.1L200.3,243.1z M168.7,239.8h10.1v3.3
		h-10.1V239.8z M178.8,245.1v3.1h-0.2c-2.6,0-3.6,1.5-3.6,2.7c0,1.7,2.1,2.7,3.6,2.7h0.2v3.3c-0.5,0-1.2,0-1.9-0.2
		c-2.7-0.5-6.2-2.2-6.2-6c0-3.3,3.6-5.8,7.9-5.7L178.8,245.1"/>
	<path id="XMLID_61_" class="st0" d="M189.5,240.7l-0.2-0.2l-0.2,0.2c0,0.2,0.2,0.2,0.2,0.2C189.5,240.8,189.5,240.8,189.5,240.7"/>
	<path id="XMLID_64_" class="st0" d="M265.8,269.2h-9.4v-10.6l8-8.4L248,232.4v4.5l10.4,12.2l-10.4,10.7V279h17.8l9.6-9.6v-38.4
		l-9.7-9.9h-38l-9.7,9.9v38.4l9.5,9.6h17.9l0-19.2l-10.4-10.7l10.4-12.2v-4.5l-16.4,17.8l8,8.4v10.6h-9.4v-38.4h37.9L265.8,269.2
		L265.8,269.2z M239.5,248.5c0-4.1,3.3-7.4,7.3-7.4c4.1,0,7.3,3.3,7.3,7.4c0,4.1-3.3,7.4-7.3,7.4
		C242.8,255.8,239.5,252.5,239.5,248.5z"/>
</g>
</svg>
