<svg id="Layer_1" data-name="Layer 1" xmlns="http://www.w3.org/2000/svg" width="243.67" height="95.6" viewBox="0 0 243.67 95.6"><title>G Pay logo - Brandlogos.net</title><g id="G_Pay_Lockup" data-name="G Pay Lockup"><g id="Pay_Typeface" data-name="Pay Typeface"><path id="Letter_p" data-name="Letter p" d="M375.89,382.7v28.19h-8.95V341.28h23.71a21.39,21.39,0,0,1,15.33,6,20.07,20.07,0,0,1,0,29.45,21.35,21.35,0,0,1-15.33,5.92H375.89Zm0-32.85v24.27h15a11.94,11.94,0,0,0,8.85-3.59,11.73,11.73,0,0,0,3.59-8.53,12.41,12.41,0,0,0-12.44-12.11h-15Z" transform="translate(-262.17 -336.2)" style="fill:#3c4043"/><path id="Letter_a" data-name="Letter a" d="M435.81,361.68q9.92,0,15.65,5.31t5.73,14.54v29.35h-8.53v-6.62h-.37c-3.68,5.45-8.62,8.15-14.77,8.15a19.17,19.17,0,0,1-13.19-4.66A14.88,14.88,0,0,1,415,396.11a14.07,14.07,0,0,1,5.59-11.74c3.73-2.94,8.71-4.38,14.91-4.38,5.31,0,9.69,1,13.09,2.94v-2a10.15,10.15,0,0,0-3.68-7.92,12.63,12.63,0,0,0-8.67-3.26A13.59,13.59,0,0,0,424.44,376l-7.87-4.94Q423.07,361.66,435.81,361.68Zm-11.55,34.57a7.05,7.05,0,0,0,3,5.82,11,11,0,0,0,6.94,2.33,14.19,14.19,0,0,0,10.06-4.19,13.16,13.16,0,0,0,4.43-9.83c-2.8-2.19-6.66-3.31-11.65-3.31a15.29,15.29,0,0,0-9.09,2.61C425.47,391.5,424.25,393.69,424.25,396.25Z" transform="translate(-262.17 -336.2)" style="fill:#3c4043"/><path id="Letter_y" data-name="Letter y" d="M505.83,363.22,476,431.8h-9.22l11.09-24-19.66-44.59H468l14.16,34.2h.19l13.79-34.2Z" transform="translate(-262.17 -336.2)" style="fill:#3c4043"/></g><g id="G_Mark" data-name="G Mark"><path id="Blue_500" data-name="Blue 500" d="M340.31,377a47.08,47.08,0,0,0-.75-8.39h-37.5V384h21.59a18.5,18.5,0,0,1-8,12.38v10h12.85C336,399.41,340.31,389.14,340.31,377Z" transform="translate(-262.17 -336.2)" style="fill:#4285f4"/><path id="Green_500" data-name="Green 500" d="M315.66,396.38a24.18,24.18,0,0,1-36-12.65H266.41V394a39.92,39.92,0,0,0,35.67,22c10.78,0,19.84-3.55,26.43-9.65Z" transform="translate(-262.17 -336.2)" style="fill:#34a853"/><path id="Yellow_500" data-name="Yellow 500" d="M278.42,376.1a24.07,24.07,0,0,1,1.25-7.64V358.18H266.41a40,40,0,0,0,0,35.85l13.26-10.29A24.07,24.07,0,0,1,278.42,376.1Z" transform="translate(-262.17 -336.2)" style="fill:#fabb05"/><path id="Red_500" data-name="Red 500" d="M302.08,352a21.69,21.69,0,0,1,15.31,6l11.39-11.38a38.34,38.34,0,0,0-26.71-10.4,39.92,39.92,0,0,0-35.67,22l13.26,10.29A23.88,23.88,0,0,1,302.08,352Z" transform="translate(-262.17 -336.2)" style="fill:#e94235"/></g></g></svg>