<svg xmlns="http://www.w3.org/2000/svg" viewBox="0 0 270.86 63.84"><title>HDFC logo</title><rect width="270.86" height="63.84" style="fill:red"/><path d="M513.17,502.73v20.69h9.47l1.25-.18,1.61-.54,1.43-.71,1.43-1.07.71-.71.71-.71.54-.89.53-.89.36-1.07.36-1.07.18-1.25.18-1.25-.18-1.25-.18-1.25-.36-1.07-.36-1.07-.53-.89-.54-.89-.53-.71-.71-.71-1.43-1.07-1.61-.89-1.43-.36-1.43-.18Zm-12.5-9.81V533.4h22l1.79-.18,1.79-.18,1.79-.36,1.79-.36,1.79-.71,1.79-.71,1.79-1.07,1.61-1.07,1.43-1.25,1.43-1.6,1.25-1.6,1.07-1.78.71-2.14.71-2.14.36-2.5.18-2.67-.18-2.67-.36-2.32-.71-2.32-.71-2-1.07-2-1.25-1.6-1.43-1.43-1.43-1.25-1.61-1.25-1.79-.89-1.79-.89-1.79-.53-1.79-.54-1.79-.36-1.79-.18H500.67Z" transform="translate(-376.57 -480.08)" style="fill-rule:evenodd"/><polygon points="173.2 53.32 173.2 12.84 211.77 12.84 211.77 23.18 185.16 23.18 185.16 28.71 204.09 28.71 204.09 38.52 185.16 38.52 185.16 53.32 173.2 53.32" style="fill-rule:evenodd"/><polygon points="74.28 53.32 74.28 12.84 86.06 12.84 86.06 27.28 104.1 27.28 104.1 12.84 115.88 12.84 115.88 53.32 104.1 53.32 104.1 37.45 86.06 37.45 86.06 53.32 74.28 53.32" style="fill-rule:evenodd"/><polygon points="226.4 33.52 226.4 32.28 226.59 31.21 226.77 30.14 227.11 29.24 227.65 28.35 228.19 27.46 228.91 26.75 229.8 26.03 230.68 25.32 231.59 24.79 232.65 24.43 233.91 24.07 235.16 23.71 236.59 23.54 238.02 23.36 239.62 23.18 241.42 23.36 243.19 23.54 244.99 23.89 246.76 24.25 248.36 24.96 249.79 25.5 251.22 26.39 252.65 27.28 256.58 17.12 254.62 16.05 252.3 15.33 249.79 14.62 247.3 13.91 244.62 13.55 241.76 13.2 238.73 13.02 235.68 13.2 233.19 13.37 230.88 13.91 228.54 14.44 226.59 15.16 224.62 15.87 222.83 16.94 221.23 18.01 219.8 19.08 218.54 20.5 217.31 21.93 216.23 23.54 215.34 25.32 214.62 27.1 214.09 29.07 213.73 31.21 213.55 33.52 213.73 35.66 214.09 37.8 214.62 39.76 215.34 41.55 216.23 43.33 217.31 44.94 218.54 46.36 219.8 47.79 221.23 48.86 222.83 49.93 224.62 51 226.59 51.71 228.54 52.42 230.88 52.96 233.19 53.49 235.68 53.67 239.27 53.85 242.48 53.67 245.51 53.32 248.36 52.78 251.05 51.89 253.56 51 255.87 49.93 258.01 48.68 251.93 38.87 250.7 39.94 249.27 40.66 247.84 41.37 246.22 42.08 244.62 42.44 242.84 42.8 241.05 42.97 239.27 43.15 236.22 42.97 233.54 42.44 232.48 42.08 231.4 41.73 230.34 41.19 229.62 40.66 228.74 39.94 228.19 39.23 227.65 38.52 227.11 37.62 226.77 36.73 226.59 35.66 226.4 34.59 226.4 33.52" style="fill-rule:evenodd"/><path d="M511,500.23v20.68h9.46l1.25-.18,1.43-.36,1.61-.71,1.43-1.25.71-.54.53-.89.72-.71.36-1.07.53-.89.36-1.25.18-1.07v-2.67l-.18-1.25-.36-1.07-.36-1.07-.53-.89-.54-.89-.71-.71-.71-.71-1.43-1.07-1.43-.71-1.61-.54-1.25-.18Zm-12.5-9.81V530.9h23.57l1.79-.18,1.79-.36,2-.54,1.79-.53,1.79-.89,1.61-.89,1.61-1.25L536,525l1.25-1.43,1.25-1.6,1.07-2,.89-2,.54-2.32.53-2.32v-5.35l-.53-2.5-.54-2.14-.89-2.14-1.07-1.78-1.25-1.78L536,496.31l-1.61-1.25L532.81,494l-1.61-1.07-1.79-.71-1.79-.71-2-.36-1.79-.36-1.79-.18-1.79-.18Z" transform="translate(-376.57 -480.08)" style="fill:#fff;fill-rule:evenodd"/><polygon points="170.88 50.82 170.88 10.34 209.44 10.34 209.44 20.86 183.02 20.86 183.02 26.21 201.77 26.21 201.77 36.02 183.02 36.02 183.02 50.82 170.88 50.82" style="fill:#fff;fill-rule:evenodd"/><polygon points="71.96 50.82 71.96 10.34 83.74 10.34 83.74 24.96 101.78 24.96 101.78 10.34 113.74 10.34 113.74 50.82 101.78 50.82 101.78 34.95 83.74 34.95 83.74 50.82 71.96 50.82" style="fill:#fff;fill-rule:evenodd"/><polygon points="224.08 31.03 224.08 29.78 224.26 28.71 224.62 27.82 224.97 26.75 225.51 25.86 226.05 24.96 226.77 24.25 227.48 23.54 228.37 23 229.45 22.47 230.51 21.93 231.59 21.57 233.02 21.22 234.25 21.04 235.88 20.86 237.31 20.86 239.27 20.86 241.05 21.04 242.84 21.4 244.45 21.93 246.05 22.47 247.65 23.18 249.08 24.07 250.33 24.96 254.44 14.62 252.3 13.73 250.16 12.84 247.65 12.13 244.99 11.59 242.3 11.06 239.45 10.88 236.59 10.7 233.54 10.7 231.05 11.06 228.54 11.41 226.4 11.95 224.26 12.66 222.48 13.55 220.69 14.44 219.09 15.51 217.48 16.76 216.23 18.01 214.98 19.61 214.09 21.04 213.19 22.82 212.48 24.61 211.95 26.75 211.41 28.71 211.23 31.03 211.41 33.17 211.95 35.31 212.48 37.27 213.19 39.23 214.09 40.83 214.98 42.44 216.23 44.04 217.48 45.29 219.09 46.54 220.69 47.61 222.48 48.5 224.26 49.39 226.4 50.11 228.54 50.64 231.05 51 233.54 51.35 236.94 51.35 240.16 51.18 243.19 50.82 246.05 50.28 248.9 49.57 251.41 48.68 253.73 47.61 255.87 46.36 249.79 36.55 248.36 37.45 246.93 38.34 245.51 39.05 243.91 39.59 242.3 40.12 240.7 40.48 238.91 40.66 236.94 40.66 233.91 40.48 231.4 40.12 230.16 39.76 229.08 39.23 228.19 38.69 227.31 38.16 226.59 37.62 225.88 36.91 225.34 36.02 224.97 35.13 224.62 34.24 224.26 33.17 224.08 32.1 224.08 31.03" style="fill:#fff;fill-rule:evenodd"/><polygon points="14.28 10.34 26.43 10.34 29.82 13.73 29.82 10.34 57.32 10.34 57.32 22.64 53.92 25.86 57.32 25.86 57.32 53.14 44.99 53.14 41.78 49.93 41.78 53.14 14.28 53.14 14.28 41.19 17.5 37.8 14.28 37.8 14.28 10.34" style="fill-rule:evenodd"/><rect x="20" y="38.34" width="19.46" height="9.09" style="fill:#fff"/><rect x="31.96" y="16.05" width="19.28" height="9.27" style="fill:#fff"/><rect x="20" y="16.05" width="9.11" height="19.97" style="fill:red"/><rect x="42.32" y="27.46" width="9.11" height="19.97" style="fill:#fff"/></svg>