<svg id="Layer_1" data-name="Layer 1" xmlns="http://www.w3.org/2000/svg" viewBox="0 0 475.03 52.44"><title>IndusInd Bank logo - Brandlogos.net</title><path d="M477.63,381a18.22,18.22,0,0,1-4.23.42c-1.13,0-2.36-.09-3.5-.09l2.48-10.92h1c3-.21,7.22-.52,9,1.33,4.22,4.43-.93,8.35-4.73,9.27m-2.88,19.17a4.84,4.84,0,0,1-1.35.21c-2.57.3-5.34.3-7.41.42l2.46-11.65c1.54-.1,3.3-.31,4.94-.31a11.42,11.42,0,0,1,3.3.21C483.49,390.58,481.85,398.94,474.74,400.17Zm20.9-30.5c-1.65-6.49-10.3-7.32-15.86-7.32h-18l-9.37,46.58h18.85c.71-.1,1.44-.1,2.16-.21,8.55-.61,17.51-2.05,19.37-11.63,1.34-6.81-2.78-11.14-9.06-12.16a44,44,0,0,0,7-2.47,11.23,11.23,0,0,0,5.36-9.48v-.22A10.82,10.82,0,0,0,495.64,369.67ZM518,399.86a10.56,10.56,0,0,1-2.88,1.85c-.2.11-.41.11-.62.21a5.9,5.9,0,0,1-5.25-.3c-2.58-2-1.65-5.26.61-6.91a8.53,8.53,0,0,1,4.64-1.44c1.64-.1,3.4,0,4.94,0h1.75C520.47,395.44,519.64,398.11,518,399.86Zm14.93-18.76c-2.88-6.9-10.82-8.13-18.43-7.2a58.1,58.1,0,0,0-9.07,1.75l-1.33,8.14a22.59,22.59,0,0,1,5.56-2.15,29.66,29.66,0,0,1,4.84-.64,25.66,25.66,0,0,1,3.81.32c3.09.72,4.23,3,4.23,6-2.79,0-5.57-.1-8,.11a31,31,0,0,0-12.88,3c-3,2.07-4.12,3.51-4.73,6.08s-.94,5.16.41,7.53c2.05,4.12,6.8,6.18,11.32,5.77a17.73,17.73,0,0,0,5.87-1.75,24.11,24.11,0,0,0,5.56-4.24l-.62,5.28h10.09l.42-3.93c.93-4.84,2.05-9.79,3.09-14.74C533.44,386.78,534.27,384.52,532.93,381.1Zm56.66-22.87h12.26l-6.28,30.1,12.26-14.42h13.7l-14.43,15.87,9.07,19.06h-13l-8-18.45-3.82,18.45H579.39Zm-13.91,36.69-2.89,14.13H560.44c.92-4.75,2.06-9.81,3-14.54.2-1.14.52-2.17.72-3.31a19.16,19.16,0,0,1,.21-2.47c.51-5.66-3.7-6.8-7.62-5-2.27,1-3.3,2.58-4.54,4.74a18,18,0,0,0-1.86,5.89l-3.08,14.62H535.19l7-34.83,11.22-.31c-.41,2.16-.92,4.33-1.34,6.5,4.43-5.47,10.41-8.25,17.1-6.39,6.9,2,8.25,8.75,7.31,15.34C576.3,391.21,576,393,575.67,394.92ZM340.89,357.78h12.77L343,409H330.28Zm50.76,37-2.91,14.28H376.22l3.07-14.68c.24-1.08.49-2.16.74-3.24a23.81,23.81,0,0,1,.17-2.57c.58-5.72-3.74-6.88-7.72-5.05-2.24,1.07-3.31,2.57-4.48,4.72a16.4,16.4,0,0,0-1.91,6L363,409H350.84l7-35.18c3.74-.08,7.55-.17,11.37-.33-.5,2.24-1,4.4-1.5,6.56,4.64-5.48,10.62-8.29,17.42-6.39s8.29,8.8,7.31,15.52C392.31,391.05,392,392.88,391.65,394.79Zm-234.47-37h12.6L159.25,409H146.48Zm77.71,42a8,8,0,0,1-2.73,1.16,7.23,7.23,0,0,1-5.89-1.5,4.66,4.66,0,0,1-1.49-2.65,13.83,13.83,0,0,1,.58-7.8,10.3,10.3,0,0,1,4.07-5.47,7,7,0,0,1,2.73-1,6.74,6.74,0,0,1,4.23.5,5.79,5.79,0,0,1,3.32,4.56l.09,2C239.8,393.55,238.38,397.53,234.89,399.77Zm12.19-42-5,22.41a12.18,12.18,0,0,0-8-6.47,13.38,13.38,0,0,0-1.9-.25,19.1,19.1,0,0,0-10,1.82c-8.71,4.48-12.61,17.18-9.12,26.15,1.49,3.73,3.64,6.48,7.54,7.88,3.48,1.25,5.39,1.08,8.71.26a17.94,17.94,0,0,0,2.82-1,26.23,26.23,0,0,0,6.55-5.07c-.49,1.82-1,3.74-1.49,5.64h11.12l10.86-51.37Zm14,15.6,12.44-.17c-.92,4.41-1.82,8.8-2.82,13.36-.59,3-1.75,6.72-.92,9.71a3.26,3.26,0,0,0,2.66,2.74,6.17,6.17,0,0,0,5.39-.83c4.23-3.07,5.39-8.21,6.47-13.11l2.58-11.87h12.19l-7.55,35.85c-3.56.08-7.13-.17-10.78-.08.41-2,.91-4.89,1.32-6.89-1.24,1.18-2.41,2.42-3.73,3.49a15.51,15.51,0,0,1-6.22,3,15.79,15.79,0,0,1-8.55-.42,10.87,10.87,0,0,1-5.8-6.31c-1.41-3.73-.82-6.14-.25-10C258.45,385.74,259.78,379.52,261.1,373.38Zm70.08.83-2.57,7.63a44.87,44.87,0,0,0-9.37-1.65,9.7,9.7,0,0,0-2.74.16c-2.49.58-3.57,2.74-1.66,4.48,2.41,2.33,6.55,2.91,9.45,4.82a15.27,15.27,0,0,1,2.33,1.9c2.4,3.66,2.06,7.56-.41,11.29-3.91,5.89-11.37,6.47-18.09,6a74.22,74.22,0,0,1-10.45-1.67l2.24-8.54c4.48,1.24,7.38,2.24,11.62,1.83,1.9-.17,4.56,0,4.56-2.66-.42-1.83-2.23-3-4.15-3.9-2.81-1.24-5.81-2.08-8-4.31a8.28,8.28,0,0,1-1.66-5.72,8.66,8.66,0,0,1,1.74-5.57C310,369.65,322.4,372.14,331.19,374.21Zm88.09,25.56a8.84,8.84,0,0,1-2.73,1.16,7.23,7.23,0,0,1-5.9-1.5,4.59,4.59,0,0,1-1.48-2.65,13.76,13.76,0,0,1,.57-7.8,9.87,9.87,0,0,1,4.07-5.47,7,7,0,0,1,2.74-1,6.76,6.76,0,0,1,4.23.5,5.53,5.53,0,0,1,3.23,4.56l.17,2C424.16,393.55,422.76,397.53,419.27,399.77Zm12.1-42-4.89,22.41a12.2,12.2,0,0,0-8-6.47,13.66,13.66,0,0,0-1.9-.25,19.13,19.13,0,0,0-10,1.82c-8.71,4.48-12.61,17.18-9.13,26.15,1.5,3.73,3.56,6.48,7.55,7.88,3.49,1.25,5.39,1.08,8.71.26a18.27,18.27,0,0,0,2.83-1,26.52,26.52,0,0,0,6.55-5.07c-.5,1.82-1,3.74-1.49,5.64h11.11l10.78-51.37Zm-224.18,37-2.9,14.28H191.85c1-4.72,2-9.87,3-14.68.24-1.08.5-2.16.74-3.33a24.56,24.56,0,0,1,.25-2.48c.49-5.72-3.74-6.88-7.71-5.05-2.33,1-3.41,2.57-4.56,4.72a17.1,17.1,0,0,0-1.91,6L178.58,409H166.3l7.13-35.18c3.82-.08,7.55-.25,11.37-.33-.51,2.24-1,4.4-1.42,6.56,4.56-5.48,10.54-8.29,17.35-6.39s8.28,8.8,7.29,15.44A42.46,42.46,0,0,1,207.19,394.79Z" transform="translate(-146.48 -357.78)" style="fill:#97272b;fill-rule:evenodd"/></svg>