<svg xmlns="http://www.w3.org/2000/svg" width="313.79" height="127.57" viewBox="0 0 313.79 127.57"><title>Punjab National Bank logo - Brandlogos.net</title><path d="M496.12,450H652c8.34,0,15.22,7.2,15.22,16v92.15c0,8.79-6.88,16-15.22,16H496.12c-8.35,0-15.16-7.2-15.16-16V466c0-8.79,6.81-16,15.16-16" transform="translate(-355.11 -448.22)" style="fill:#febd30;fill-rule:evenodd"/><path d="M652,575.78H496.12c-9.26,0-16.8-7.91-16.8-17.63V466c0-9.73,7.54-17.64,16.8-17.64H652c9.3,0,16.86,7.91,16.86,17.64v92.15c0,9.72-7.56,17.63-16.86,17.63M496.12,451.65c-7.45,0-13.51,6.44-13.51,14.35v92.15c0,7.91,6.06,14.34,13.51,14.34H652c7.48,0,13.57-6.44,13.57-14.34V466c0-7.91-6.09-14.35-13.57-14.35Z" transform="translate(-355.11 -448.22)" style="fill:#fff"/><path d="M465.17,449.86H372.53a15.94,15.94,0,0,0-15.78,16v92.23a15.94,15.94,0,0,0,15.78,16h92.64a15.9,15.9,0,0,0,15.79-16V465.83a15.9,15.9,0,0,0-15.79-16" transform="translate(-355.11 -448.22)" style="fill:#9f1a45;fill-rule:evenodd"/><path d="M465.17,575.68H372.53a17.54,17.54,0,0,1-17.43-17.61V465.83a17.54,17.54,0,0,1,17.43-17.62h92.64a17.54,17.54,0,0,1,17.43,17.62v92.23a17.54,17.54,0,0,1-17.43,17.61M372.53,451.5a14.25,14.25,0,0,0-14.14,14.33v92.23a14.25,14.25,0,0,0,14.14,14.33h92.64a14.25,14.25,0,0,0,14.14-14.33V465.83a14.26,14.26,0,0,0-14.14-14.33Z" transform="translate(-355.11 -448.22)" style="fill:#fff"/><path d="M522.09,487a25.14,25.14,0,0,1,25.27,24.9c0,16.75-16.74,27.71-32.85,22.48V523.19c8.53,5.16,20.18,0,20.18-10.32a13.56,13.56,0,0,0-27.12,0c0,15.16-.32,30-.32,45.26H496.82V509.5c.32-12.16,11.71-22.22,25.28-22.48m29.67,48.34h10.95V511c-.89-14.26,22.48-15.47,21.84,0v24.4h11.08v-25c1-31.27-45.77-29.23-43.86,0ZM626,537.14c13.94,0,25.34-11.21,25.34-24.9,0-16.75-17.06-27.64-33.17-22.48V501c8.79-5.16,20.56,0,20.56,10.38a13.76,13.76,0,0,1-13.62,13.38,13.55,13.55,0,0,1-13.63-13.38c0-15.22-.33-30.42-.33-45.63h-10.7l0,46.53.25,2.42c.38,12.17,11.71,22.17,25.28,22.49" transform="translate(-355.11 -448.22)" style="fill:#9f1a45;fill-rule:evenodd"/><path d="M419.62,475.55a19.17,19.17,0,1,1-19.47,19.17,19.3,19.3,0,0,1,19.47-19.17m22.53-9.47h22.62v91.77H442.14v-26c-19.92,7.28-38.54,7.92-55.67-8.84-7.08-7.37-11.07-17.42-9.4-34.94.29-2.68-1-15.11-4.12-22H393c9.41,14.94-2.93,34,11.49,46.18,19.64,12.72,36.78-2.49,37.61-16.22Z" transform="translate(-355.11 -448.22)" style="fill:#febd30;fill-rule:evenodd"/></svg>