<svg xmlns="http://www.w3.org/2000/svg" viewBox="0 0 333.98 87.76"><title>RuPay logo</title><path d="M660.15,474.57,679,512l-39.61,37.43Z" transform="translate(-345.01 -468.12)" style="fill:#008c44"/><path d="M647.1,474.57,665.91,512l-39.58,37.43Z" transform="translate(-345.01 -468.12)" style="fill:#f47920"/><path d="M345,535.8l18.79-67.68h30c9.39,0,15.66,1.49,18.85,4.55s3.78,8,1.87,15a25.76,25.76,0,0,1-5.32,10.27,24.71,24.71,0,0,1-9.43,6.47c3.3.79,5.39,2.37,6.33,4.72s.83,5.8-.31,10.31l-2.28,9.45v.26c-.66,2.65-.46,4.06.61,4.18l-.69,2.51H383.13c.07-1.59.2-3,.33-4.21a20,20,0,0,1,.51-2.82l1.89-6.76c1-3.51,1-6,.13-7.38s-2.89-2.16-6.05-2.16H371.4l-6.51,23.34Zm30.61-38.59h9.15c3.2,0,5.57-.46,7-1.4a8.1,8.1,0,0,0,3.19-4.9c.66-2.37.5-4-.45-5s-3.21-1.42-6.77-1.42h-8.62Z" transform="translate(-345.01 -468.12)" style="fill:#1b3281"/><path d="M470.31,485.86,456.46,535.8H439.63l2.07-7.32a32.86,32.86,0,0,1-9,6.53,22.12,22.12,0,0,1-9.6,2.14,15.3,15.3,0,0,1-7.1-1.51,9.71,9.71,0,0,1-4.37-4.52,12.89,12.89,0,0,1-1.1-6.5c.16-2.55,1.05-6.84,2.72-12.85l7.18-25.92H438.8l-7.16,25.8c-1,3.78-1.3,6.43-.79,7.87s2,2.21,4.25,2.21a7.73,7.73,0,0,0,5.88-2.55,17.78,17.78,0,0,0,3.84-7.61l7.1-25.72Z" transform="translate(-345.01 -468.12)" style="fill:#1b3281"/><path d="M463.63,535.8l18.77-67.68h25.82a61.49,61.49,0,0,1,13.25,1.07,16.41,16.41,0,0,1,7.43,3.47,13.8,13.8,0,0,1,4.27,7.88,25.61,25.61,0,0,1-1,11.11q-3.15,11.35-11,17.42t-19.57,6H489.51l-5.74,20.72Zm30.45-37.25h6.49c4.2,0,7.15-.52,8.88-1.52a8.7,8.7,0,0,0,3.59-5.37c.72-2.59.54-4.41-.56-5.42s-3.75-1.52-8.06-1.52h-6.48Z" transform="translate(-345.01 -468.12)" style="fill:#1b3281"/><path d="M553.85,535.8l.19-4.74a33.52,33.52,0,0,1-9,5,28.56,28.56,0,0,1-9.65,1.61c-5.21,0-8.85-1.42-11-4.16s-2.42-6.69-1-11.72,3.77-8.62,7.25-11,9.24-4.06,17.35-5.14c1-.17,2.41-.3,4.13-.51,6-.69,9.36-2.29,10.09-4.9.38-1.43.15-2.48-.74-3.13s-2.45-1-4.76-1a8.37,8.37,0,0,0-4.72,1.22,7.39,7.39,0,0,0-2.84,3.76H531.25a20.7,20.7,0,0,1,9.9-12.71c5-2.89,11.48-4.28,19.57-4.28A41.29,41.29,0,0,1,571,485.23a15.51,15.51,0,0,1,6.65,3.07,9.05,9.05,0,0,1,3.1,5.42c.34,2,0,4.87-1.08,8.63l-7.72,27.84a5.55,5.55,0,0,0-.16,2.47,3,3,0,0,0,1,1.74l-.41,1.41Zm4.47-22.3a67,67,0,0,1-7.65,2.37c-5,1.33-7.75,3.1-8.35,5.3a3.39,3.39,0,0,0,.44,3.33,4.49,4.49,0,0,0,3.53,1.18,11.11,11.11,0,0,0,7.34-2.3c1.83-1.55,3.2-4,4.16-7.32.17-.71.31-1.22.41-1.61Z" transform="translate(-345.01 -468.12)" style="fill:#1b3281"/><path d="M572.48,555.48l4.09-14.78h5.27a7.59,7.59,0,0,0,4.12-1,5.33,5.33,0,0,0,2.06-3.26,11.69,11.69,0,0,0,.4-2.14,23.7,23.7,0,0,0,0-2.73l-2.81-45.73h18.63l-.29,30.3,16.27-30.3h17.33l-28.76,49.7q-4.9,8.33-7.14,11.45a23.86,23.86,0,0,1-4.27,4.74,16,16,0,0,1-5.89,3.18,37.35,37.35,0,0,1-9.8.95c-1.26,0-2.72,0-4.29-.11s-3.22-.15-4.93-.29" transform="translate(-345.01 -468.12)" style="fill:#1b3281"/></svg>