<?xml version="1.0" encoding="UTF-8"?><svg id="Layer_1" xmlns="http://www.w3.org/2000/svg" xmlns:xlink="http://www.w3.org/1999/xlink" viewBox="0 0 126.36 22.94"><defs><style>.cls-1{fill:url(#linear-gradient);}.cls-2{clip-rule:evenodd;fill:none;}.cls-3{fill:#2a2075;}.cls-4{clip-path:url(#clippath);}.cls-5{fill:#00b4ee;}</style><clipPath id="clippath"><path class="cls-2" d="M113.66,14.82c-.04-.19-.07-.41-.07-.66,0-1.09.47-2.13,1.39-3.09.93-.97,2.03-1.45,3.3-1.45.78,0,1.48.17,2.12.5.64.33,1.13.76,1.47,1.29l-8.1,3.96c-.04-.17-.09-.35-.13-.54ZM112.01,9.18c-1.51,1.6-2.27,3.51-2.27,5.73s.83,4.2,2.48,5.73c1.65,1.53,3.63,2.3,5.94,2.3,2.05,0,3.86-.61,5.44-1.82.52-.4,1.1-1.01,1.75-1.82l-2.92-1.7c-.39.5-.72.87-1,1.1-.86.71-1.8,1.07-2.82,1.07-.89,0-1.73-.29-2.53-.88-.26-.19-.57-.48-.94-.88l11.21-5.53c-.67-1.79-1.73-3.21-3.19-4.26-1.46-1.05-3.11-1.58-4.97-1.58-2.51,0-4.57.85-6.19,2.55ZM93.15,8.58v13.86h4.24V6.53l-4.24,2.04ZM93.62,1.56c-.44.47-.66,1.04-.66,1.71s.24,1.19.71,1.63c.47.44,1.07.66,1.78.66s1.26-.25,1.7-.74c.44-.49.66-1.04.66-1.65,0-.65-.24-1.2-.73-1.65-.49-.45-1.07-.68-1.73-.68-.71,0-1.29.24-1.73.71ZM77.27.5v21.93h12.86l1.07-3.58h-9.27V.5h-4.66ZM106.63,0h-.03c-1.54,0-2.76.47-3.65,1.42-.89.95-1.34,2.2-1.34,3.75v1.96h-1.52l-.84,3.27h2.37v12.03h4.24v-12.03h2.33l.84-3.27h-3.17v-1.46c0-1.54.52-2.31,1.56-2.31.39,0,.78.1,1.17.3.04.02.11.07.19.14l.91-3.24c-.39-.12-.71-.22-.97-.28-.77-.19-1.46-.28-2.08-.28Z"/></clipPath><linearGradient id="linear-gradient" x1="89.39" y1="11.47" x2="138.48" y2="11.47" gradientUnits="userSpaceOnUse"><stop offset="0" stop-color="#d81d52"/><stop offset="1" stop-color="#2a2075"/></linearGradient></defs><path class="cls-5" d="M12.23,18.5c0-1.23,0-2.46,0-3.68,0-.24.06-.37.29-.48,1.35-.67,2.02-2.14,1.67-3.62-.33-1.4-1.63-2.41-3.09-2.41-1.46,0-2.75,1.02-3.09,2.47-.34,1.4.35,2.89,1.67,3.55.26.13.33.28.33.54,0,2.4,0,4.81,0,7.21,0,.51,0,.51-.5.43-3.69-.6-6.45-2.55-8.21-5.84C-2.25,9.99,1.86,1.71,9.28.49c5.93-.98,11.57,2.95,12.72,8.85,1.21,6.2-2.94,12.16-9.17,13.17q-.6.1-.6-.52v-3.49Z"/><path class="cls-3" d="M60.07,10.78c.27.17.54.32.79.51,1.78,1.36,2.39,3.16,2.19,5.22-.29,3.02-2.4,5.04-5.85,5.7-.8.15-1.6.23-2.41.23-2.76,0-5.53,0-8.29,0-.34,0-.44-.07-.43-.4.01-7.06.01-14.12,0-21.18,0-.32.1-.4.43-.4,2.79.01,5.59-.02,8.38.01,1.86.02,3.63.38,5.11,1.5,2.82,2.12,2.94,6.3.28,8.61-.06.05-.12.11-.2.18M51.07,11.45c0,2.15,0,4.31,0,6.47,0,.29.06.4.4.39,1.23-.02,2.46,0,3.69,0,1.66-.02,2.76-1,2.82-2.49.06-1.52-.9-2.55-2.57-2.69-.55-.05-1.1-.03-1.65-.02-.25,0-.32-.07-.32-.3.01-1.16.01-2.32,0-3.48,0-.24.1-.29.33-.29.43,0,.87.02,1.3-.01.66-.05,1.27-.23,1.63-.79.53-.82.55-1.7.11-2.55-.42-.81-1.22-1.06-2.13-1.07-1.07-.01-2.14,0-3.21-.01-.32,0-.41.07-.41.38.02,2.16,0,4.31,0,6.47Z"/><path class="cls-3" d="M37.92,14.86c-.63-.44-1.32-.76-2.04-1.06-1.2-.51-2.43-.94-3.59-1.52-1.51-.76-2.86-1.68-3.62-3.19-1.16-2.3-.43-5.26,1.74-7.02,1.69-1.37,3.69-1.89,5.85-1.9,2.49.04,4.75.63,6.69,2.09.66.49.65.51.26,1.18-.58,1.01-1.17,2.01-1.73,3.03-.17.31-.26.27-.51.07-1.32-1.09-2.85-1.79-4.64-1.87-.75-.04-1.47.11-2.11.5-1.13.7-1.22,1.9-.2,2.72.48.39,1.06.66,1.64.9,1.43.61,2.93,1.08,4.31,1.8,1.46.75,2.73,1.69,3.41,3.16,1.28,2.77.3,6.99-4.06,8.46-3.06,1.04-6.04.62-8.9-.7-1-.46-1.9-1.07-2.68-1.83-.19-.18-.19-.31-.03-.51.81-1.02,1.61-2.04,2.39-3.08.21-.28.32-.25.57-.04,1.47,1.27,3.17,2.11,5.21,2.2.55.03,1.09-.05,1.61-.25,1.27-.48,1.83-2.16.43-3.14"/><path class="cls-3" d="M70.68,11.5c0,3.5,0,7,0,10.51,0,.35-.08.45-.47.44-1.49-.02-2.98-.02-4.47,0-.3,0-.36-.08-.36-.34,0-7.1,0-14.2,0-21.3,0-.26.07-.34.36-.34,1.5.01,3.01.02,4.51,0,.35,0,.42.09.42.4-.01,3.54,0,7.08,0,10.63"/><g class="cls-4"><rect class="cls-1" x="77.27" width="49.09" height="22.94"/></g></svg>