<?xml version="1.0" encoding="utf-8"?>
<!-- Generator: Adobe Illustrator 27.0.0, SVG Export Plug-In . SVG Version: 6.00 Build 0)  -->
<svg version="1.1" id="Layer_1" xmlns="http://www.w3.org/2000/svg" xmlns:xlink="http://www.w3.org/1999/xlink" x="0px" y="0px"
	 viewBox="0 0 512 512" style="enable-background:new 0 0 512 512;" xml:space="preserve">
<style type="text/css">
	.st0{fill:#0044AA;}
</style>
<g id="XMLID_1_">
	<path id="XMLID_15_" class="st0" d="M443.76,264.82v-5.75h2.67l-2.67-9.12v-7.02h4.07l8.84,25.96h-7.72l-1.26-4.07H443.76z
		 M459.19,242.93h7.02l8.84,14.45v-14.45h7.02v25.96h-7.02l-8.84-14.17v14.17h-7.02V242.93z M486.83,242.93h7.44v9.82l7.72-9.82
		h9.82l-8.7,9.82l8.84,16.14h-8.84l-5.05-10.52l-3.79,4.35v6.31h-7.44L486.83,242.93L486.83,242.93z M443.76,242.93v7.02v-0.28
		l-2.67,9.4h2.67v5.75h-4.35l-1.26,4.07h-7.44l8.84-25.96L443.76,242.93L443.76,242.93z M418.5,268.89v-5.47h0.42
		c1.4,0,2.1-0.28,2.67-0.7c0.7-0.42,0.98-1.26,0.98-1.96c0-0.7-0.28-1.4-0.98-1.96c-0.42-0.42-1.26-0.7-2.67-0.7h-0.42v-4.91
		c1.26,0,1.96-0.28,2.39-0.7c0.42-0.42,0.7-0.98,0.7-1.96c0-0.7-0.28-1.26-0.7-1.68c-0.42-0.42-1.26-0.7-2.39-0.7v-5.33h3.09
		c2.39,0,4.07,0.7,5.33,1.96s1.96,2.95,1.96,4.63s-0.42,2.95-1.4,4.07c-0.42,0.7-1.4,1.26-2.39,1.68c1.68,0.42,2.95,1.26,3.65,2.39
		c0.98,0.98,1.26,2.39,1.26,4.07c0,1.26-0.28,2.39-0.7,3.65c-0.7,0.98-1.4,1.96-2.39,2.39c-0.7,0.42-1.4,0.7-2.95,0.98
		c-1.68,0.28-2.67,0.28-3.09,0.28H418.5L418.5,268.89z M418.5,242.93v5.33h-3.09v5.05h3.09v4.77h-3.09v5.33h3.09v5.47h-10.52v-25.96
		L418.5,242.93L418.5,242.93z M380.48,269.31v-6.03c1.4,0,2.67-0.42,3.65-1.68c0.98-0.98,1.4-3.09,1.4-6.03
		c0-2.39-0.42-4.07-1.4-5.33c-0.98-1.26-2.1-1.68-3.65-1.68v-6.03c3.79,0,7.02,0.98,9.12,3.37c2.1,2.39,3.09,5.47,3.09,9.82
		c0,2.95-0.42,5.47-1.4,7.44s-2.1,3.37-4.07,4.63c-1.68,0.98-3.79,1.4-6.45,1.4C380.48,269.31,380.48,269.31,380.48,269.31
		L380.48,269.31z M330.81,242.93h7.16v15.57c0,1.4-0.28,2.95-0.42,4.35c-0.42,1.4-1.26,2.67-2.1,3.65c-0.98,0.98-1.96,1.68-2.95,2.1
		c-1.4,0.42-3.09,0.7-5.33,0.7c-1.26,0-2.39,0-3.79-0.28c-1.26,0-2.39-0.42-3.37-0.98c-0.98-0.42-1.68-1.26-2.39-2.1
		c-0.98-0.98-1.4-2.1-1.68-3.09c-0.42-1.68-0.7-3.09-0.7-4.35v-15.57h7.44v15.86c0,1.4,0.28,2.67,0.98,3.37
		c0.7,0.98,1.96,1.26,3.09,1.26s2.1-0.28,2.95-1.26c0.7-0.7,1.26-1.96,1.26-3.37v-15.86H330.81z M380.48,242.65v6.03
		c-1.68,0-2.95,0.42-3.65,1.68c-0.98,1.26-1.4,3.09-1.4,5.75c0,2.67,0.42,4.35,1.4,5.47c0.7,1.26,1.96,1.68,3.65,1.68v6.03
		c-2.67,0-4.77-0.42-6.45-1.26c-1.68-0.98-3.09-2.67-4.35-4.63c-0.98-1.96-1.68-4.63-1.68-7.44c0-4.35,1.26-7.72,3.37-10.1
		C373.46,243.63,376.55,242.65,380.48,242.65z M359.01,258.22l6.31,2.1c-0.28,1.96-0.98,3.65-1.96,5.05
		c-0.98,1.26-2.1,2.1-3.65,2.95c-1.26,0.7-3.09,0.98-5.05,0.98c-2.67,0-4.77-0.28-6.45-1.26c-1.68-0.7-3.09-2.1-4.35-4.35
		c-1.26-1.96-1.68-4.63-1.68-8c0-4.35,0.98-7.44,3.09-9.82c2.1-2.39,5.05-3.37,8.84-3.37c3.09,0,5.33,0.42,7.16,1.96
		c1.68,1.26,2.95,3.37,3.65,6.03l-6.45,1.68c-0.28-0.98-0.42-1.4-0.7-1.68c-0.28-0.7-0.7-1.26-1.4-1.4
		c-0.42-0.42-1.26-0.42-1.96-0.42c-1.68,0-2.95,0.7-3.79,2.1c-0.7,0.98-0.98,2.67-0.98,5.05c0,2.95,0.28,4.77,1.26,6.03
		c0.7,0.98,1.96,1.4,3.37,1.4c1.4,0,2.39-0.28,3.09-1.26C358.03,261.17,358.59,259.91,359.01,258.22"/>
	<path id="XMLID_16_" class="st0" d="M24.79,261.87v-5.33c0,0-3.65,2.67-7.02,3.37c-1.68,0.28-4.35,0.28-6.03-1.26
		c-0.98-0.98-0.98-1.4-1.4-2.1c0.98,0,5.05-0.42,6.74-3.65c1.96-3.09-1.26-6.74-1.26-6.74h5.33v-4.63H-0.05v4.63h8.14
		c0,0,4.63,1.4,3.09,4.63c-1.26,2.67-7.72,1.68-7.72,1.68s0,2.1,0.42,4.35c1.26,4.35,6.31,7.72,11.37,7.72
		C21.42,264.96,24.79,261.87,24.79,261.87"/>
	<polyline id="XMLID_17_" class="st0" points="34.33,246.3 34.33,241.67 19.03,241.67 19.03,246.3 23.8,246.3 23.8,270.01 
		29.84,270.01 29.84,246.3 34.33,246.3 	"/>
	<path id="XMLID_18_" class="st0" d="M37.97,280.11c0,0-0.7-2.67-4.07-7.44c-3.09-4.35-11.08-5.33-15.15-1.68
		c-2.39,2.1-3.09,6.03,0.7,8.42c4.07,2.67,8.84,0.7,8.84,0.7l-1.26-3.37c0,0-2.39,0.98-4.35,0.28c-1.68-0.98-1.26-2.95,0-3.65
		c1.96-1.26,6.03-0.98,8,2.95c1.68,3.65,2.1,5.33,2.1,5.33L37.97,280.11"/>
	<path id="XMLID_22_" class="st0" d="M76.7,246.3v-4.63H46.67v4.63h5.33v4.35c-1.4-0.98-3.09-1.4-5.33-1.4v4.35
		c2.95,0,5.33,1.26,5.33,3.65c0,3.09-3.37,4.07-5.33,4.07v4.63c3.09-0.28,5.33-1.4,5.33-1.4v5.75h6.03v-13.05
		c0,0,0.42-3.65,5.47-3.65c2.95,0,4.77,1.4,4.77,4.07c0,2.1-2.95,3.65-5.33,3.65v4.35c6.03,0.28,11.51-3.37,11.08-8.7
		c-0.42-4.63-5.05-7.16-10.8-7.16c-2.67,0-4.35,0.42-5.33,0.98v-4.35L76.7,246.3L76.7,246.3z M32.5,241.67h14.17v4.63H32.5V241.67z
		 M46.67,249.1v4.35h-0.28c-3.65,0-4.77,2.1-4.77,3.79c0,2.39,2.67,3.79,5.05,3.79v4.63c-0.98,0-1.68,0-2.39-0.28
		c-4.07-0.7-8.7-3.09-8.7-8.42c0-4.63,4.77-8.14,10.8-8L46.67,249.1"/>
	<path id="XMLID_23_" class="st0" d="M61.83,242.93l-0.42-0.28v0.28c0,0.28,0,0.28,0,0.28C61.55,243.07,61.83,243.07,61.83,242.93"
		/>
	<polyline id="XMLID_24_" class="st0" points="89.19,246.3 89.19,241.67 73.89,241.67 73.89,246.3 78.67,246.3 78.67,270.01 
		84.42,270.01 84.42,246.3 89.19,246.3 	"/>
	<path id="XMLID_25_" class="st0" d="M83.44,242.23c0,0-1.26-5.05-3.09-7.44c-2.1-3.09-4.07-4.07-6.74-5.05
		c-2.95-0.98-7.02-0.7-7.02-0.7l0.98,4.35c0,0,2.39,0,4.35,0.42s3.65,2.1,4.35,3.37c1.4,2.67,1.96,5.05,1.96,5.05H83.44"/>
	<path id="XMLID_26_" class="st0" d="M88.49,242.93l-0.42-0.28v0.28c0,0.28,0,0.28,0,0.28C88.21,243.07,88.49,243.07,88.49,242.93"
		/>
	<path id="XMLID_27_" class="st0" d="M90.45,242.93v-0.28l-0.28,0.28c0,0.28,0,0.28,0.28,0.28
		C90.45,243.07,90.45,243.07,90.45,242.93"/>
	<path id="XMLID_36_" class="st0" d="M129.74,246.3h0.7v-4.63h-0.7V246.3z M129.74,265.52v-8.7l4.63,3.09v4.07
		C134.23,264.12,132.55,264.96,129.74,265.52L129.74,265.52z M129.74,253.45v-4.35c3.09,0.7,4.63,1.96,4.63,1.96v4.63
		C134.23,255.7,132.12,254.02,129.74,253.45L129.74,253.45z M129.74,241.67h-4.63v4.63h4.63V241.67z M129.74,249.1v4.35
		c-0.28,0-0.42,0-0.42,0c-1.4-0.42-2.95-0.42-4.07,0v-4.49c0.42,0,0.98,0,1.4,0C127.77,248.96,128.76,248.96,129.74,249.1z
		 M129.74,256.82v8.7c-0.98,0.28-1.96,0.42-3.09,0.42c-0.42,0-0.98,0-1.4,0v-4.07c0.42,0,0.42,0,0.7,0c2.1,0.28,3.79-0.28,3.79-0.28
		l-4.63-3.09v-4.63L129.74,256.82z M111.64,241.67h13.47v4.63h-13.47V241.67z M125.11,248.96c-5.05,0.42-9.82,3.79-9.82,8.7
		c0,4.77,4.63,8,9.82,8.42v-4.07c-1.68-0.42-4.35-1.96-4.35-4.07c0-1.4,0.7-1.96,0.7-1.96l3.65,2.67v-4.63l-0.42-0.42h0.42V248.96"
		/>
	<polyline id="XMLID_37_" class="st0" points="143.63,246.3 143.63,241.67 128.2,241.67 128.2,246.3 133.11,246.3 133.11,270.01 
		139,270.01 139,246.3 143.63,246.3 	"/>
	<path id="XMLID_44_" class="st0" d="M138.86,241.95c0,0-1.96-6.31-4.35-8.84c-1.4-1.96-3.09-3.09-5.05-3.79v4.77
		c0.42,0.42,1.26,1.26,1.68,1.96c2.1,2.95,2.95,6.03,2.95,6.03h4.77V241.95z M129.46,241.95v-5.05c0.42,0.42,0.98,0.98,1.26,1.68
		c1.26,1.68,1.68,3.37,1.68,3.37L129.46,241.95L129.46,241.95z M129.46,229.18c-0.7-0.42-1.68-0.7-2.39-0.98h-0.42v4.07
		c0.98,0.42,1.96,0.98,2.95,1.68v-4.77H129.46z M129.46,236.9v5.05h-1.26c0,0-0.28-0.98-0.7-1.96c-0.28-0.42-0.42-0.98-0.98-1.4
		v-3.65C127.49,235.49,128.48,236.2,129.46,236.9z M126.51,228.2v4.07c-0.42,0-0.42,0-0.7,0c-1.4-0.7-3.65-0.42-3.65-0.42
		l-1.96-4.07C120.34,227.78,123.85,227.5,126.51,228.2z M126.51,234.93c-0.42-0.28-0.98-0.28-1.68-0.42
		c-1.96-0.42-4.77-0.28-4.77-0.28l1.4,3.37c0,0,1.4-0.28,3.09,0.28c0.7,0.28,1.4,0.42,1.96,0.7V234.93"/>
	<path id="XMLID_56_" class="st0" d="M141.95,230.86c0-1.4-1.26-2.39-3.09-2.39c-0.42,0-0.98,0-1.4,0.28v4.07
		c0.42,0.28,0.98,0.42,1.4,0.42C140.68,233.25,141.95,232.27,141.95,230.86z M136.61,241.95v-5.75c0.28,0.7,0.42,1.26,0.7,1.96v3.79
		L136.61,241.95L136.61,241.95z M136.61,232.27v-3.09c0-0.28,0.28-0.28,0.7-0.42v4.07C136.89,232.83,136.61,232.55,136.61,232.27z
		 M137.32,241.95h1.4c0,0-0.42-1.96-1.4-3.79V241.95z M136.61,229.18v3.09c-0.42-0.42-0.98-0.98-0.98-1.4
		C135.63,230.16,136.19,229.6,136.61,229.18L136.61,229.18z M136.61,236.2c-0.7-1.26-1.4-2.39-2.1-3.09
		c-1.4-1.96-3.09-3.09-5.05-3.79v4.77c0.42,0.42,1.26,1.26,1.68,1.96c2.1,2.95,2.95,6.03,2.95,6.03h2.67v-5.89H136.61z
		 M129.46,241.95v-5.05c0.42,0.42,0.98,0.98,1.26,1.68c1.26,1.68,1.68,3.37,1.68,3.37L129.46,241.95L129.46,241.95z M129.46,229.18
		v4.77c-0.98-0.7-1.96-1.26-2.95-1.68v-4.07h0.42C127.77,228.48,128.76,228.76,129.46,229.18z M129.46,236.9v5.05h-1.26
		c0,0-0.28-0.98-0.7-1.96c-0.28-0.42-0.42-0.98-0.98-1.4v-3.65C127.49,235.49,128.48,236.2,129.46,236.9z M126.51,228.2
		c-2.67-0.7-6.31-0.42-6.31-0.42l1.96,4.07c0,0,2.1-0.28,3.65,0.42c0.28,0,0.28,0,0.7,0V228.2z M126.51,234.93
		c-0.42-0.28-0.98-0.28-1.68-0.42c-1.96-0.42-4.77-0.28-4.77-0.28l1.4,3.37c0,0,1.4-0.28,3.09,0.28c0.7,0.28,1.4,0.42,1.96,0.7
		V234.93"/>
	<path id="XMLID_60_" class="st0" d="M186.28,246.3v-4.63h-30.03v4.63h5.33v4.35c-1.68-0.98-3.37-1.4-5.33-1.4v4.35
		c2.95,0,5.05,1.26,5.05,3.65c0,3.09-3.37,4.07-5.05,4.07v4.63c3.09-0.28,5.33-1.4,5.33-1.4v5.75h6.03v-13.05
		c0,0,0.42-3.65,5.33-3.65c3.09,0,5.05,1.4,5.05,4.07c0,2.1-3.09,3.65-5.47,3.65v4.35c6.31,0.28,11.51-3.37,11.08-8.7
		c-0.42-4.63-4.77-7.16-10.52-7.16c-2.67,0-4.63,0.42-5.33,0.98v-4.35L186.28,246.3L186.28,246.3z M141.95,241.67h14.17v4.63h-14.17
		V241.67z M156.12,249.1v4.35h-0.28c-3.65,0-5.05,2.1-5.05,3.79c0,2.39,2.95,3.79,5.05,3.79h0.28v4.63c-0.7,0-1.68,0-2.67-0.28
		c-3.79-0.7-8.7-3.09-8.7-8.42c0-4.63,5.05-8.14,11.08-8L156.12,249.1"/>
	<path id="XMLID_61_" class="st0" d="M171.13,242.93l-0.28-0.28l-0.28,0.28c0,0.28,0.28,0.28,0.28,0.28
		C171.13,243.07,171.13,243.07,171.13,242.93"/>
	<path id="XMLID_64_" class="st0" d="M278.19,282.92H265v-14.87l11.23-11.79l-23.01-24.98v6.31l14.59,17.12l-14.59,15.01v26.94
		h24.98l13.47-13.47v-53.88l-13.61-13.89h-53.32l-13.61,13.89v53.88l13.33,13.47h25.12v-26.94l-14.59-15.01l14.59-17.12v-6.31
		l-23.01,24.98l11.22,11.79v14.87h-13.19v-53.88h53.18L278.19,282.92L278.19,282.92z M241.29,253.88c0-5.75,4.63-10.38,10.24-10.38
		c5.75,0,10.24,4.63,10.24,10.38c0,5.75-4.63,10.38-10.24,10.38C245.92,264.12,241.29,259.49,241.29,253.88z"/>
</g>
</svg>
