<svg xmlns="http://www.w3.org/2000/svg" viewBox="0 0 509.45 210.01"><defs><style>.a,.c{fill:#fff;}.b{fill:#0062a7;}.c,.d{fill-rule:evenodd;}.d{fill:#d71921;}</style></defs><title>Yes Bank logo - Brandlogos.net</title><rect class="a" y="59.21" width="509.45" height="114.29"/><rect class="b" x="3.64" y="62.89" width="502.16" height="106.92"/><polygon class="c" points="48.87 143.11 61.39 143.11 61.39 117.24 81.75 89.71 68.4 89.71 56.25 106.6 45.22 89.71 30 89.71 48.87 117.77 48.87 143.11"/><polygon class="c" points="87.18 143.11 119.99 143.11 119.99 131.88 99.4 131.88 99.4 121.31 116.78 121.31 116.78 110.38 99.4 110.38 99.4 100.72 119.69 100.72 119.69 89.71 87.18 89.71 87.18 143.11"/><path class="c" d="M389,535l1,14.25a63.24,63.24,0,0,0,7.45,1.9,36.13,36.13,0,0,0,6.56.66q9.09-.15,14.12-4.95a16.67,16.67,0,0,0,5.12-12.47q-.1-6.24-3.68-10a36.62,36.62,0,0,0-9.44-6.79L404,514.2a8.59,8.59,0,0,1-2.75-2.24,4.3,4.3,0,0,1-.91-2.59,3.8,3.8,0,0,1,1.53-3.14,6.93,6.93,0,0,1,4.21-1.16,16.29,16.29,0,0,1,5.49,1.2,41.12,41.12,0,0,1,7.56,3.86V497.61a57,57,0,0,0-7.07-2,30.66,30.66,0,0,0-6.28-.71q-7.93.13-12.53,4.21a13.68,13.68,0,0,0-4.7,10.49,14.82,14.82,0,0,0,2.5,8.5,22.49,22.49,0,0,0,7.7,6.74l3.58,2a59.77,59.77,0,0,1,6.42,4,5.38,5.38,0,0,1,2.39,4.39,4.53,4.53,0,0,1-1.91,3.71,8.75,8.75,0,0,1-5.33,1.5,19.86,19.86,0,0,1-7.34-1.47,46.92,46.92,0,0,1-7.57-4" transform="translate(-257.28 -406.99)"/><polygon class="c" points="371.41 143.11 380.35 143.11 380.35 109.17 414.44 144.85 415.41 144.85 415.41 89.71 406.39 89.71 406.39 123.66 372.37 87.97 371.41 87.97 371.41 143.11"/><polygon class="c" points="432.26 143.11 441.43 143.11 441.43 118.15 465.22 143.11 477.16 143.11 450.52 115.36 474.62 89.71 463.88 89.71 441.43 113.55 441.43 89.71 432.26 89.71 432.26 143.11"/><polygon class="c" points="294.38 0 178.61 210.01 138.9 169.81 166.27 169.81 294.38 0"/><polygon class="d" points="279.91 22.55 177.84 204.02 147.68 173.49 168.11 173.49 279.91 22.55"/><path class="c" d="M577.28,550.11l4.33-9.5h24l4.25,9.5h9.77L594.58,495h-.74l-26,55.14ZM585,533l8.72-19.92L602.34,533Z" transform="translate(-257.28 -406.99)"/><path class="c" d="M527.24,550.11V496.71H543c4.31,0,9.63.7,13.17,3.47q4.4,3.45,4.41,10.1a11.37,11.37,0,0,1-2,6.88,13.14,13.14,0,0,1-6.3,4.44,12.21,12.21,0,0,1,7,4.53,13.88,13.88,0,0,1,2.5,8.38q0,7.86-5,11.74t-15.17,3.87H527.24Zm9-7.48V526h6.49q4.88,0,7.4,2.15a7.46,7.46,0,0,1,2.53,6,8,8,0,0,1-2.58,6.3c-1.7,1.47-4.09,2.21-7.24,2.22Zm0-23.75v-15.1h5.08q5.15,0,7.68,1.69a6.13,6.13,0,0,1,2.54,5.48,7.18,7.18,0,0,1-2.57,5.77q-2.55,2.11-7.28,2.16Z" transform="translate(-257.28 -406.99)"/></svg>