<svg xmlns="http://www.w3.org/2000/svg" viewBox="0 0 401.05 152.58"><title>Costa Coffee logo</title><path d="M515.2,437.29h30.23C535.09,442.11,528,452.11,529,463.37c1.45,16.47,16.45,22.85,16.45,42.27,0,12.94-8.39,24.3-17.65,29.21l-27.51-7.59c9.51-4.44,15.81-13.66,15.4-23.71-.64-15.64-15.4-22.8-15.4-40.5,0-12,6.67-21.62,14.93-25.76" transform="translate(-311.47 -435.71)" style="fill:#790028"/><polygon points="268.4 83.18 268.4 22.4 249.98 22.4 249.98 1.58 311.26 1.58 311.26 22.4 292.65 22.4 292.65 83.18 268.4 83.18" style="fill:#790028"/><path d="M311.47,478.22A42.6,42.6,0,0,0,384,508.42l-16.52-16.49a19.21,19.21,0,1,1,0-27.39L384,448a42.6,42.6,0,0,0-72.58,30.18" transform="translate(-311.47 -435.71)" style="fill:#790028"/><path d="M438,497.45a19.21,19.21,0,1,1,19.24-19.21A19.25,19.25,0,0,1,438,497.45m.73-61.73a42.56,42.56,0,1,0,42.59,42.54,42.53,42.53,0,0,0-42.59-42.54" transform="translate(-311.47 -435.71)" style="fill:#790028"/><path d="M663.85,486.91l7.42-31.27h1.29L680,486.91Zm22.83-49.63H657.19l-25.84,81.6h24.92l3.34-14.05h24.63l3.32,14.05h25Z" transform="translate(-311.47 -435.71)" style="fill:#790028"/><polygon points="175.84 119.39 200.67 119.39 200.67 125.91 183.45 125.91 183.45 132.35 197.73 132.35 197.73 138.87 183.45 138.87 183.45 151.99 175.84 151.99 175.84 119.39" style="fill:#790028"/><polygon points="211.06 119.39 235.88 119.39 235.88 125.91 218.67 125.91 218.67 132.35 232.95 132.35 232.95 138.87 218.67 138.87 218.67 151.99 211.06 151.99 211.06 119.39" style="fill:#790028"/><path d="M430.48,576.68a9.73,9.73,0,1,1-.73-11.45l5-5a16.88,16.88,0,1,0,.74,21.54Z" transform="translate(-311.47 -435.71)" style="fill:#790028"/><polygon points="253.96 145.44 253.96 138.88 268.24 138.88 268.24 132.35 253.96 132.35 253.96 125.91 270.75 125.91 270.75 119.4 246.35 119.4 246.35 152 271.42 152 271.42 145.44 253.96 145.44" style="fill:#790028"/><polygon points="307.16 125.91 307.16 119.39 282.76 119.39 282.76 152 307.83 152 307.83 145.44 290.37 145.44 290.37 138.87 304.65 138.87 304.65 132.35 290.37 132.35 290.37 125.91 307.16 125.91" style="fill:#790028"/><path d="M459.94,581.09a9.69,9.69,0,1,1,9.7-9.69,9.7,9.7,0,0,1-9.7,9.69m0-26.5a16.84,16.84,0,1,0,16.84,16.84,16.84,16.84,0,0,0-16.84-16.84" transform="translate(-311.47 -435.71)" style="fill:#790028"/></svg>