<svg id="Layer_1" data-name="Layer 1" xmlns="http://www.w3.org/2000/svg" viewBox="0 0 398.91 60"><title>Decathlon logo - Brandlogos.net</title><path d="M306.47,405h28.38v-9.12H317.27v-7.65h15.57v-8.49H317.27v-7.65h17.58V363H306.47Zm63.6-18.09c-4.11,6.54-8.1,9.27-13.23,9.27-6.66,0-10.53-4.68-10.53-12.81,0-7.71,3.57-11.55,9.06-11.55,3.63,0,6.63,1.62,7.56,7h10.8c-1.17-10.29-7.74-16.68-18.24-16.68-12.18,0-20.19,8.61-20.19,21.81s8,21.87,21.18,21.87c8.61,0,14.46-3.6,18.33-8.46h14.73V405h10.74V363H385Zm19.47,2H380l9.51-15.45ZM283.43,363H267.65v42h15.78c12.51,0,20.58-8.25,20.58-21S295.94,363,283.43,363Zm-.15,32.88h-4.83V372.09h4.83c6.24,0,9.75,4.41,9.75,11.91S289.52,395.88,283.28,395.88Zm241-33.72c-12.69,0-21.21,8.61-21.21,21.84s8.52,21.84,21.21,21.84,21.21-8.61,21.21-21.84S537,362.16,524.24,362.16Zm0,34c-6.24,0-10.17-4.17-10.17-12.18s3.93-12.18,10.17-12.18S534.41,376,534.41,384,530.51,396.18,524.24,396.18ZM403,372.09h10.59V405h10.8V372.09H435V363H403ZM573,363v23.13L559.1,363H547.91v42h10.44V380.91L572.84,405h10.62V363Zm-85.29,0h-10.8v42H504v-9.09H487.73ZM463,379H448.46V363h-10.8v42h10.8V388.08H463V405h10.8V363H463Z" transform="translate(-184.54 -354)" style="fill:#3643ba"/><path d="M237.17,354c-23.45,0-52.62,24.26-52.62,44.38,0,10.39,8,15.62,18.51,15.62,7.74,0,17.1-2.83,26.13-8.28V365.59c-2.41,4.12-13.73,20.74-22.82,29.59-4.64,4.52-8.31,6.47-11.47,6.47-3.55,0-5.24-2.41-5.24-6,0-16.26,27.37-37.39,45.49-37.39,7.47,0,12.28,3.31,12.28,9.75,0,5.9-4,13.31-10.84,20.14V400.6c11.92-9.42,19.06-21.43,19.06-31.13C255.65,359.27,247.7,354,237.17,354Z" transform="translate(-184.54 -354)" style="fill:#3643ba"/></svg>