<svg id="Layer_1" data-name="Layer 1" xmlns="http://www.w3.org/2000/svg" viewBox="0 0 295.06 295.08"><title>Dominos Pizza logo - Brandlogos.net</title><g id="_Group_" data-name="&lt;Group&gt;"><g id="_Group_2" data-name="&lt;Group&gt;"><path id="_Path_" data-name="&lt;Path&gt;" d="M508.86,330.86,428.7,250.71a17.91,17.91,0,0,0-25.33,0l-67.22,67.22L224.27,429.81a17.94,17.94,0,0,0,0,25.33l80.15,80.15a17.92,17.92,0,0,0,25.33,0L430,435l78.82-78.82a17.93,17.93,0,0,0,0-25.33" transform="translate(-219.03 -245.46)" style="fill:#fff"/><path id="_Compound_Path_" data-name="&lt;Compound Path&gt;" d="M503.19,336.56,423,256.41a9.89,9.89,0,0,0-14,0l-86.66,86.66,94.15,94.14,86.66-86.66a9.89,9.89,0,0,0,0-14M432.7,359.73a23.2,23.2,0,1,1,6.81-16.41,23.18,23.18,0,0,1-6.81,16.41" transform="translate(-219.03 -245.46)" style="fill:#e21937"/><path id="_Compound_Path_2" data-name="&lt;Compound Path&gt;" d="M229.94,435.48a9.89,9.89,0,0,0,0,14l80.15,80.16a9.9,9.9,0,0,0,14,0L410.71,443l-94.15-94.15Zm69.41,23.08a23.27,23.27,0,1,1,6.78-16.42,23.26,23.26,0,0,1-6.78,16.42m35.3-31.89a23.19,23.19,0,1,1-6.8,16.42,23.11,23.11,0,0,1,6.8-16.42" transform="translate(-219.03 -245.46)" style="fill:#0079ad"/><path id="_Compound_Path_3" data-name="&lt;Compound Path&gt;" d="M345.21,526.52a3.4,3.4,0,1,1-3.45,3.39,3.39,3.39,0,0,1,3.45-3.39m0,.55A2.85,2.85,0,1,0,348,529.9a2.76,2.76,0,0,0-2.78-2.84m-.72,4.81h-.6V528h1.5c.93,0,1.39.35,1.39,1.12a1,1,0,0,1-1,1.08l1.12,1.72h-.66l-1-1.7h-.68Zm0-2.2h.72c.73,0,1-.21,1-.64s-.18-.58-.87-.58h-.82Z" transform="translate(-219.03 -245.46)" style="fill:#0079ad"/></g></g></svg>