<svg xmlns="http://www.w3.org/2000/svg" viewBox="0 0 204.5 45.44"><title>Shake Shack logo - Brandlogos.net</title><path d="M417,515.78l-1.37-.66c-2.06-1-2.89-1.53-2.89-3.09a2.43,2.43,0,0,1,2.63-2.44,3.42,3.42,0,0,1,3.22,1.82l.08.13,1.5-1-.08-.13a5.09,5.09,0,0,0-4.75-2.59,4.23,4.23,0,0,0-4.5,4.23c0,2.43,1.46,3.6,4,4.8l1.37.66c2.05,1,3.09,1.78,3.09,3.56s-1.35,2.79-3.52,2.79a4.65,4.65,0,0,1-4.29-2.61l-.07-.14-1.63.87.07.14a6.41,6.41,0,0,0,5.94,3.53c3.34,0,5.42-1.78,5.42-4.64C421.18,518.35,419.64,517.07,417,515.78Z" transform="translate(-409.75 -489.28)"/><path d="M435.11,518.08H426.2v-10h-1.92v17.44h1.92v-5.64h8.91v5.64H437V508.06h-1.92Z" transform="translate(-409.75 -489.28)"/><path d="M439.55,525.49l7.23-17.84h.33l7.25,17.84h-2l-1.17-3h-8.51l-1.19,3Zm3.83-4.74h7.11c-.4-1-2.36-6-3.53-8.94Z" transform="translate(-409.75 -489.28)"/><path d="M468.45,508.06h-2.2l-7.45,9.59v-9.59h-1.92v17.44h1.92V520.3l2-2.53,6,7.72h2.32L462,516.35Z" transform="translate(-409.75 -489.28)"/><path d="M473.41,519.82h7.65v-1.74h-7.65v-8.26H482v-1.77H471.49v17.44h10.83v-1.77h-8.92Z" transform="translate(-409.75 -489.28)"/><path d="M540.89,515.78l-1.37-.66c-2.06-1-2.89-1.53-2.89-3.09a2.43,2.43,0,0,1,2.63-2.44,3.42,3.42,0,0,1,3.22,1.82l.08.13,1.5-1-.08-.13a5.09,5.09,0,0,0-4.75-2.59,4.23,4.23,0,0,0-4.5,4.23c0,2.43,1.46,3.6,4,4.8l1.37.66c2.05,1,3.09,1.78,3.09,3.56s-1.35,2.79-3.53,2.79a4.65,4.65,0,0,1-4.29-2.61l-.07-.13-1.63.87.07.14a6.41,6.41,0,0,0,5.94,3.53c3.34,0,5.42-1.78,5.42-4.64C545.1,518.35,543.56,517.07,540.89,515.78Z" transform="translate(-409.75 -489.28)"/><path d="M559,518.08h-8.91v-10H548.2v17.44h1.92v-5.64H559v5.64h1.92V508.06H559Z" transform="translate(-409.75 -489.28)"/><path d="M563.48,525.49l7.23-17.84H571l7.25,17.84h-2l-1.17-3h-8.51l-1.19,3Zm3.83-4.74h7.11c-.4-1-2.36-6-3.54-8.94Z" transform="translate(-409.75 -489.28)"/><path d="M593,521.12a6.72,6.72,0,0,1-5.62,2.78c-3.94,0-6.8-3-6.8-7.13s2.87-7.13,6.68-7.13a6.33,6.33,0,0,1,5.29,2.56l.09.12,1.48-1.08-.09-.13a8.11,8.11,0,0,0-6.75-3.26,8.62,8.62,0,0,0-8.69,8.92,8.93,8.93,0,0,0,2.48,6.36,8.68,8.68,0,0,0,6.27,2.56,8.52,8.52,0,0,0,7.17-3.49l.09-.13L593.08,521Z" transform="translate(-409.75 -489.28)"/><path d="M602.41,516.35l6.43-8.29h-2.2l-7.45,9.59v-9.59h-1.91v17.43h1.91v-5.19l2-2.53,6,7.72h2.32Z" transform="translate(-409.75 -489.28)"/><path d="M614.09,510.24a2.34,2.34,0,0,0,0-1.71,2,2,0,0,0-1.86-1.24,2,2,0,0,0-.78.15,2,2,0,0,0-1.09,1.09,2.17,2.17,0,0,0-.16.86,2.24,2.24,0,0,0,.15.83,2,2,0,0,0,.42.66,1.9,1.9,0,0,0,.64.44,2.06,2.06,0,0,0,.82.16,2,2,0,0,0,1.86-1.24Zm-.4-1.56a2.08,2.08,0,0,1,0,1.4,1.69,1.69,0,0,1-.34.55,1.54,1.54,0,0,1-.5.35,1.52,1.52,0,0,1-.62.13,1.55,1.55,0,0,1-.66-.14,1.52,1.52,0,0,1-.5-.37,1.66,1.66,0,0,1-.32-.55,2,2,0,0,1-.11-.67,2,2,0,0,1,.12-.7,1.66,1.66,0,0,1,.34-.55,1.5,1.5,0,0,1,.5-.35,1.54,1.54,0,0,1,.63-.13,1.52,1.52,0,0,1,.62.13,1.54,1.54,0,0,1,.5.35A1.68,1.68,0,0,1,613.69,508.68Zm-1.86,1.9h-.37v-2.32h.87a1,1,0,0,1,.62.16.6.6,0,0,1,.21.51.57.57,0,0,1-.17.46.77.77,0,0,1-.42.17l.64,1h-.42l-.59-1h-.35Zm.62-1.32h-.62v-.68h.62a.46.46,0,0,1,.16,0,.3.3,0,0,1,.12.09.27.27,0,0,1,0,.17.38.38,0,0,1,0,.2.33.33,0,0,1-.12.11A.46.46,0,0,1,612.44,509.26Z" transform="translate(-409.75 -489.28)"/><path d="M524.86,506.94v-2.37c1.22,0,1.47-.39,1.7-.71a1.71,1.71,0,0,0,.24-.78h0c0-3-1.83-5.77-5.08-7.92a25.45,25.45,0,0,0-25.77,0c-3.26,2.15-5.09,5-5.08,7.92h0a1.86,1.86,0,0,0,.23.78c.23.32.49.68,1.71.71h32.06v2.37H492.8a4.07,4.07,0,0,1-3.69-1.83,4,4,0,0,1-.58-2h0c.15-8,9.43-13.77,20.3-13.79S529,495,529.14,503.07h0a4.09,4.09,0,0,1-.59,2,4,4,0,0,1-3.58,1.83Z" transform="translate(-409.75 -489.28)" style="fill:#418613"/><path d="M496.2,534.72c-2.95,0-4.8-.27-6.16-1.38s-1.51-2.87-1.51-4.69h0a3.32,3.32,0,0,1,.64-1.88,4.25,4.25,0,0,1,3.64-1.55h32.06v2.37H492.81c-1.27,0-1.59.37-1.76.58a.91.91,0,0,0-.18.46v0h0c0,1.77.22,2.52.68,2.88s1.85.84,4.66.82h24c3.42,0,5.16-.47,5.79-1s.76-1.11.78-2.64c0,0,0,0,0-.06s0,0,0-.14a1.11,1.11,0,0,0-.16-.34c-.18-.21-.48-.56-1.76-.58v-2.37a4.25,4.25,0,0,1,3.64,1.55,3.36,3.36,0,0,1,.63,1.79.14.14,0,0,1,0,.05v.05c0,1.63-.18,3.41-1.69,4.58s-3.62,1.46-7.21,1.49Z" transform="translate(-409.75 -489.28)" style="fill:#418613"/><path d="M488.53,519.44a3.55,3.55,0,0,0,3.58,3.5h33.45a3.5,3.5,0,1,0,0-7H492.11A3.55,3.55,0,0,0,488.53,519.44Zm3.58,1.13a1.14,1.14,0,1,1,0-2.26h33.45a1.14,1.14,0,1,1,0,2.26Z" transform="translate(-409.75 -489.28)" style="fill:#418613"/><path d="M505.42,512a1.49,1.49,0,0,0-1.47-.82,1.7,1.7,0,0,0-1.34.64.23.23,0,0,0-.06.08,4,4,0,0,1-3.38,1.77,3.9,3.9,0,0,1-3.31-1.67,1.48,1.48,0,0,0-1.47-.82,1.71,1.71,0,0,0-1.34.64.26.26,0,0,0-.06.08,4,4,0,0,1-3.38,1.77,1.18,1.18,0,0,1,0-2.37,1.73,1.73,0,0,0,1.36-.61s0,0,0,0a4,4,0,0,1,3.39-1.86,3.85,3.85,0,0,1,3.31,1.74,1.53,1.53,0,0,0,1.48.76,1.72,1.72,0,0,0,1.36-.61l0,0a4,4,0,0,1,3.39-1.85,3.84,3.84,0,0,1,3.31,1.74,1.53,1.53,0,0,0,1.48.76,1.73,1.73,0,0,0,1.36-.61l0,0a4,4,0,0,1,3.39-1.85,3.85,3.85,0,0,1,3.31,1.74,1.52,1.52,0,0,0,1.47.76,1.18,1.18,0,0,1,0,2.37A3.88,3.88,0,0,1,515,512a1.48,1.48,0,0,0-1.47-.82,1.71,1.71,0,0,0-1.35.64.43.43,0,0,0-.06.08,4,4,0,0,1-3.38,1.77h-.13A3.9,3.9,0,0,1,505.42,512Z" transform="translate(-409.75 -489.28)" style="fill:#418613"/><path d="M524.55,512a1.49,1.49,0,0,0-1.48-.82,1.7,1.7,0,0,0-1.34.64l-.06.08a4,4,0,0,1-3.38,1.77,1.18,1.18,0,0,1,0-2.37,1.74,1.74,0,0,0,1.37-.61l0,0a4,4,0,0,1,3.39-1.85,3.84,3.84,0,0,1,3.31,1.73,1.54,1.54,0,0,0,1.48.76,1.18,1.18,0,0,1,0,2.37h-.12A3.9,3.9,0,0,1,524.55,512Z" transform="translate(-409.75 -489.28)" style="fill:#418613"/></svg>