<svg height="1698" viewBox="0 0 288 195.611" width="2500" xmlns="http://www.w3.org/2000/svg"><path d="m93.515 137.396h91.175l-45.588-68.55z" fill="#002169"/><path d="m93.599 0h-93.599l93.515 137.396 45.587-68.55z" fill="#e1251b"/><path d="m184.985 0-45.883 68.845 45.588 68.55 93.894-137.395z" fill="#0082ca"/><path d="m39.711 152.88-10.955 27.934-11.102-27.933h-13.398l17.886 42.638h12.66l17.718-42.639zm43.312-.315h11.84v43.017h-11.84zm87.457 0h11.84v43.017h-11.84zm-48.779 9.437-6.32 22.225-6.425-22.225-12.492-.021 11.208 33.601h14.409l11.144-33.58zm64.359 0h11.86v33.58h-11.86zm0-9.437h11.86v6.32h-11.86zm38.74 9.437h-23.11v33.58h11.82v-26.628h8.89v26.628h11.86v-25.027c0-6.72-4.256-8.553-9.46-8.553zm-66.696 33.58c5.772 0 8.637-2.781 8.637-7.92 0-4.573.022-17.402.022-17.402 0-6.867-4.55-8.258-8.785-8.258h-15.442c-4.234 0-8.785 1.39-8.785 8.258 0 0 .022 12.829.022 17.401 0 5.14 2.864 7.921 8.658 7.921zm-12.387-6.973v-19.507l9.1-.19v19.697zm-66.57-18.033c0-6.741-4.277-8.574-10.09-8.574h-16.917l-2.633 6.32h17.843v4.782h-11.966c-4.867 0-9.417 1.601-9.417 8.574v6.531c0 5.013 2.992 7.373 9.143 7.373 4.699 0 24.037-.021 24.037-.021zm-11.797 18.034h-10.05v-9.185h10.05zm170.407-17.592v15.97c0 3.074 1.074 4.908 1.79 5.729 1.538 1.77 3.982 2.865 8.363 2.865h18.876l1.686-6.34h-18.919v-5.415h12.556c5.203 0 8.406-1.959 8.406-7.794v-6.257c0-6.089-4.023-7.774-9.312-7.774h-13.377c-5.919 0-10.07 2.549-10.07 9.016zm11.796-2.064h10.05v8.553h-10.05zm-52.52-36.608v-1.601h5.92v1.601h-2.001v5.098h-1.938v-5.098zm9.29-1.601 1.222 3.856 1.2-3.856h2.781v6.699h-1.768v-4.845l-1.454 4.845h-1.517l-1.454-4.824v4.824h-1.79v-6.7zm67.184 59.767v-1.6h5.92v1.6h-2.003v5.099h-1.958v-5.099zm9.29-1.6 1.222 3.855 1.2-3.855h2.781v6.699h-1.77v-4.846l-1.474 4.846h-1.496l-1.453-4.846v4.846h-1.79v-6.7z" fill="#002169"/></svg>